<svg width="32" height="32" viewBox="0 0 256 256" fill="none" xmlns="http://www.w3.org/2000/svg">

    <!--icons-scroll-->
    <g id="arrowScroll">
        <!-- fill="evenodd" -->
        <path fill-rule="evenodd" clip-rule="evenodd"
              d="M15.9993 2C16.2645 2 16.5189 2.10536 16.7064 2.29289C16.894 2.48043 16.9993 2.73478 16.9993 3V26.586L23.2913 20.292C23.4791 20.1042 23.7338 19.9987 23.9993 19.9987C24.2649 19.9987 24.5195 20.1042 24.7073 20.292C24.8951 20.4798 25.0006 20.7344 25.0006 21C25.0006 21.2656 24.8951 21.5202 24.7073 21.708L16.7073 29.708C16.6144 29.8011 16.5041 29.875 16.3826 29.9254C16.2611 29.9758 16.1308 30.0018 15.9993 30.0018C15.8678 30.0018 15.7375 29.9758 15.616 29.9254C15.4946 29.875 15.3842 29.8011 15.2913 29.708L7.29131 21.708C7.10354 21.5202 6.99805 21.2656 6.99805 21C6.99805 20.7344 7.10354 20.4798 7.29131 20.292C7.47908 20.1042 7.73376 19.9987 7.99931 19.9987C8.26486 19.9987 8.51954 20.1042 8.70731 20.292L14.9993 26.586V3C14.9993 2.73478 15.1047 2.48043 15.2922 2.29289C15.4797 2.10536 15.7341 2 15.9993 2Z"
              fill="#5222D0"/>

    </g>

    <!--skills-->
    <g id="docker">
        <path d="M117.523 49.7463C114.821 47.8713 108.628 47.1681 103.787 48.1056C103.224 43.4181 100.635 39.3171 96.1308 35.6842L93.5414 33.8092L91.7395 36.5046C89.4881 40.0202 88.3622 44.9421 88.6997 49.6296C88.8122 51.2697 89.3752 54.1994 91.0641 56.7775C89.4881 57.715 86.2228 58.8869 81.9445 58.8869H0.541401L0.316401 59.8244C-0.472037 64.5114 -0.472037 79.1594 8.76046 90.4089C15.7411 98.9632 26.0995 103.299 39.7228 103.299C69.2212 103.299 91.0641 89.1194 101.31 63.4567C105.363 63.5739 114.033 63.4567 118.424 54.6677C118.537 54.4333 118.762 53.9646 119.55 52.2072L120 51.2697L117.523 49.7463ZM65.6184 16.7008H53.2341V28.4191H65.6184V16.7008ZM65.6184 30.7628H53.2341V42.4811H65.6184V30.7624V30.7628ZM50.9817 30.7628H38.5973V42.4811H50.9817V30.7624V30.7628ZM36.345 30.7628H23.9602V42.4811H36.345V30.7624V30.7628ZM21.7083 44.8249H9.32343V56.5432H21.7078V44.8244L21.7083 44.8249ZM36.345 44.8249H23.9602V56.5432H36.345V44.8244V44.8249ZM50.9817 44.8249H38.5973V56.5432H50.9817V44.8244V44.8249ZM65.6189 44.8249H53.2336V56.5432H65.6189V44.8244V44.8249ZM80.2556 44.8249H67.8703V56.5432H80.2556V44.8244V44.8249Z"
              fill="#2396ED"/>
    </g>
    <g id="express">
        <path d="M37.2184 73.389V47.1348H38.6425V51.2646C38.8106 51.0815 38.9659 50.887 39.1073 50.6824C40.2967 48.2148 42.8053 46.6574 45.5441 46.6882C48.791 46.5914 51.4295 47.7933 52.98 50.6824C53.9667 52.4773 54.5097 54.4822 54.5636 56.5297C54.6175 58.5771 54.1808 60.6078 53.2899 62.4521C51.8453 65.6899 48.2772 67.2996 44.4572 66.7084C43.2684 66.6073 42.1239 66.2101 41.1281 65.553C40.1322 64.8959 39.3169 63.9998 38.7564 62.9465V73.3878L37.2184 73.389ZM38.6425 56.422L38.9615 59.5048C39.5243 63.0138 41.5988 65.0872 44.856 65.4768C46.3856 65.7283 47.955 65.4416 49.2968 64.6654C50.6386 63.8893 51.6698 62.6718 52.2144 61.2206C53.4813 58.2015 53.3879 54.7838 51.9638 51.8354C51.3825 50.5344 50.3935 49.4581 49.1464 48.7689C47.8992 48.0797 46.4616 47.8153 45.0508 48.0154C43.7266 48.1118 42.4652 48.6181 41.4419 49.4642C40.4187 50.3102 39.6843 51.454 39.3408 52.7365C39.0376 53.9502 38.8044 55.1804 38.6425 56.4209V56.422ZM83.6409 59.9902C83.4249 61.8387 82.5449 63.5459 81.1646 64.7942C79.7842 66.0425 77.9974 66.7471 76.1366 66.7767C70.1646 67.0775 67.362 63.1117 66.9166 58.5353C66.6068 56.0501 67.0102 53.5281 68.0797 51.2635C68.8241 49.71 70.0438 48.4338 71.5619 47.6198C73.0801 46.8058 74.8181 46.4963 76.5239 46.736C78.1456 46.8739 79.6829 47.5183 80.9182 48.5779C82.1535 49.6376 83.0243 51.059 83.4073 52.6408C83.7107 54.0818 83.934 55.5385 84.0761 57.0042H68.3919C68.1014 61.1534 70.3309 64.4891 73.4912 65.2934C77.4273 66.2618 80.7916 64.5563 82.0129 60.8139C82.284 59.8535 82.7785 59.7179 83.6511 59.9902H83.6409ZM68.3805 55.6758H82.4093C82.3216 51.2555 79.5692 48.0428 75.8358 48.0063C71.6206 47.938 68.5639 51.0219 68.3805 55.6758ZM86.5403 60.087H87.9154C87.9659 61.1001 88.2949 62.0796 88.8661 62.9177C89.4373 63.7559 90.2287 64.4203 91.1531 64.8377C92.3139 65.3601 93.5775 65.614 94.8499 65.5804C96.1224 65.5469 97.3708 65.2268 98.5025 64.644C99.1193 64.3663 99.6361 63.9059 99.9828 63.325C100.33 62.7441 100.49 62.0708 100.441 61.396C100.477 60.7452 100.299 60.1006 99.9354 59.5599C99.5715 59.0192 99.0413 58.6119 98.425 58.3998C96.9121 57.837 95.3034 57.5271 93.762 57.0327C92.1581 56.576 90.5897 56.0026 89.0694 55.3169C86.5858 54.1048 86.432 49.3837 89.2437 47.889C90.6834 47.0766 92.3036 46.6376 93.9565 46.6122C95.6094 46.5867 97.2424 46.9755 98.7064 47.7432C100.522 48.7457 101.526 50.7702 101.228 52.8242H100.048C100.048 52.7673 99.9414 52.7171 99.9414 52.659C99.7955 48.8995 96.6352 47.7238 93.2425 48.0542C92.2172 48.1681 91.2454 48.478 90.334 48.936C89.7861 49.1862 89.3296 49.6005 89.0275 50.1215C88.7254 50.6426 88.5928 51.2447 88.6479 51.8445C88.649 52.4447 88.8361 53.0298 89.1833 53.5194C89.5305 54.0091 90.0209 54.3791 90.5869 54.5787C92.0679 55.1221 93.6401 55.4707 95.1724 55.8968L98.875 56.8652C99.7166 57.1414 100.454 57.6666 100.991 58.3712C101.528 59.0759 101.838 59.9269 101.88 60.8116C102.177 62.7996 101.163 64.7534 99.3695 65.6591C96.1317 67.491 90.7988 67.0069 88.4235 64.6907C87.2079 63.4683 86.53 61.8084 86.5437 60.0859L86.5403 60.087ZM119.328 52.8254H118.038C118.038 52.6511 117.97 52.4836 117.951 52.3503C117.93 51.3836 117.578 50.4534 116.953 49.7156C116.328 48.9778 115.468 48.4773 114.518 48.298C112.726 47.7839 110.814 47.876 109.079 48.56C108.393 48.7563 107.79 49.1693 107.358 49.7373C106.926 50.3053 106.69 50.9978 106.685 51.7112C106.66 52.4117 106.878 53.0991 107.302 53.6573C107.726 54.2155 108.33 54.6102 109.011 54.7746L114.906 56.2876C115.543 56.4405 116.171 56.6314 116.785 56.8595C118.665 57.543 119.941 59.2884 119.998 61.2832C120.026 62.2597 119.758 63.2218 119.23 64.0432C118.701 64.8647 117.936 65.507 117.036 65.8858C115.668 66.5073 114.185 66.8361 112.682 66.8512C111.18 66.8663 109.691 66.5674 108.31 65.9735C107.175 65.4841 106.217 64.6586 105.565 63.6081C104.914 62.5577 104.599 61.3329 104.665 60.0984H105.925C106.399 62.3826 107.967 64.2852 110.119 65.1852C112.272 66.0852 114.729 65.8642 116.686 64.5973C117.273 64.2919 117.761 63.8247 118.091 63.2509C118.421 62.677 118.579 62.0207 118.548 61.3596C118.577 60.7083 118.393 60.0653 118.024 59.5281C117.654 58.9909 117.12 58.5887 116.502 58.3827C114.989 57.8199 113.38 57.5203 111.839 57.0156C110.226 56.5659 108.648 55.999 107.118 55.3192C104.693 54.1264 104.5 49.4441 107.263 47.9505C108.721 47.104 110.373 46.6493 112.058 46.6305C113.743 46.6117 115.405 47.0296 116.881 47.8434C117.725 48.3472 118.405 49.0857 118.837 49.9688C119.269 50.8519 119.435 51.8416 119.314 52.8174L119.328 52.8254ZM34.875 66.3028C34.3673 66.4948 33.807 66.4942 33.2997 66.3014C32.7924 66.1085 32.3732 65.7366 32.1214 65.2558L27.1086 58.3234L26.3818 57.3551L20.5647 65.2661C20.3276 65.7261 19.9312 66.0842 19.4494 66.2733C18.9676 66.4624 18.4335 66.4696 17.9467 66.2937L25.4408 56.2397L18.4685 47.1553C19.5029 46.7816 20.6559 47.1872 21.2312 48.1237L26.4262 55.1415L31.652 48.151C31.8908 47.6988 32.2876 47.3502 32.7667 47.1714C33.2458 46.9927 33.774 46.9963 34.2506 47.1815L31.5449 50.7713L27.8799 55.5414C27.7782 55.6322 27.6968 55.7435 27.6411 55.868C27.5854 55.9924 27.5565 56.1273 27.5565 56.2637C27.5565 56.4 27.5854 56.5349 27.6411 56.6593C27.6968 56.7838 27.7782 56.8951 27.8799 56.9859L34.8601 66.3028H34.875ZM66.6944 47.0585V48.4256C65.7138 48.3612 64.7306 48.5033 63.8083 48.8424C62.886 49.1816 62.0451 49.7104 61.3398 50.3946C60.6345 51.0789 60.0805 51.9034 59.7135 52.8151C59.3466 53.7267 59.1749 54.7051 59.2095 55.6872C59.2095 58.8802 59.2095 62.0731 59.2095 65.2661V66.3518H57.823V47.1439H59.1901V51.08C60.8671 48.2091 63.4555 47.1439 66.7035 47.0664L66.6944 47.0585ZM0.00227889 56.1144L0.612921 53.0988C2.28991 47.1359 9.12545 44.6546 13.8283 48.3481C16.5819 50.5104 17.2689 53.5739 17.1344 57.0258H1.62116C1.37053 63.1915 5.81933 66.9146 11.5099 65.0143C13.3851 64.3307 14.7967 62.7722 15.2615 60.8355C15.5623 59.8671 16.059 59.7008 16.9681 59.9811C16.8165 61.1615 16.3992 62.2921 15.7476 63.2881C15.096 64.284 14.2271 65.1192 13.2063 65.7309C11.5197 66.6533 9.58459 67.0187 7.67775 66.775C5.77091 66.5313 3.98995 65.6909 2.58953 64.374C1.2042 62.8167 0.367981 60.848 0.205067 58.7689C0.205067 58.4271 0.0911409 58.1081 0.0113928 57.8005C0.00379779 57.2256 0 56.6635 0 56.1144H0.00227889ZM1.64053 55.6974H15.6693C15.5816 51.2281 12.7608 48.0576 8.99899 48.028C4.81108 47.971 1.81484 51.0721 1.63028 55.6781L1.64053 55.6974Z"
              fill="#BDEBEA"/>
    </g>
    <g id="git">
        <path d="M251.172245,116.593517 L139.398753,4.82845302 C132.966433,-1.60948434 122.525852,-1.60948434 116.085106,4.82845302 L92.8753863,28.0381721 L122.317995,57.4807809 C129.16041,55.1690784 137.005593,56.7195763 142.460425,62.1744081 C147.940536,67.6629464 149.479799,75.5755422 147.111919,82.4404282 L175.487156,110.815665 C182.352042,108.450594 190.273064,109.98143 195.755985,115.472777 C203.418591,123.132574 203.418591,135.547794 195.755985,143.213209 C188.09057,150.878624 175.67535,150.878624 168.007126,143.213209 C162.243319,137.443783 160.81922,128.977839 163.737639,121.877008 L137.275245,95.4146135 L137.272436,165.052198 C139.140337,165.979126 140.904309,167.212221 142.460425,168.762719 C150.123031,176.422516 150.123031,188.837736 142.460425,196.508768 C134.79501,204.171375 122.374173,204.171375 114.719993,196.508768 C107.057387,188.837736 107.057387,176.422516 114.719993,168.762719 C116.613174,166.872347 118.804095,165.442631 121.141077,164.481996 L121.141077,94.1955625 C118.804095,93.2405457 116.615983,91.8192558 114.719993,89.9148396 C108.914052,84.1173254 107.518042,75.5980132 110.492639,68.4690928 L81.4713611,39.4421974 L4.83125614,116.076685 C-1.60949009,122.52024 -1.60949009,132.960821 4.83125614,139.398759 L116.604747,251.166631 C123.039876,257.604569 133.477648,257.604569 139.921203,251.166631 L251.172245,139.9184 C257.61018,133.477654 257.61018,123.031455 251.172245,116.593517"
              fill="#DE4C36">
        </path>
    </g>
    <g id="javascript">
        <path d="M0 0H115.49V120H0V0Z" fill="#F7DF1E"/>
        <path d="M30.3652 100.28L39.2033 94.7229C40.9083 97.8641 42.4594 100.522 46.1798 100.522C49.7461 100.522 51.9945 99.0723 51.9945 93.4342V55.0913H62.8477V93.5936C62.8477 105.274 56.2585 110.59 46.6451 110.59C37.963 110.59 32.9232 105.918 30.365 100.28"
              fill="black"/>
        <path d="M68.745 99.0724L77.582 93.756C79.9083 97.7035 82.9318 100.603 88.2807 100.603C92.7776 100.603 95.6453 98.2669 95.6453 95.0448C95.6453 91.1783 92.6995 89.8088 87.7379 87.5541L85.0253 86.345C77.1949 82.8819 72.0005 78.5322 72.0005 69.3492C72.0005 60.8913 78.2024 54.4469 87.8933 54.4469C94.793 54.4469 99.7545 56.9442 103.32 63.469L94.87 69.1073C93.0093 65.6438 90.9943 64.2747 87.8935 64.2747C84.7149 64.2747 82.6992 66.369 82.6992 69.1073C82.6992 72.4905 84.7149 73.8602 89.3659 75.9547L92.079 77.1629C101.304 81.2713 106.499 85.4595 106.499 94.8836C106.499 105.034 98.824 110.591 88.5135 110.591C78.4354 110.591 71.9232 105.597 68.7452 99.0724"
              fill="black"/>
    </g>
    <g id="jest">
        <path d="M101.852 59.083C101.852 52.9145 96.8514 47.9135 90.6829 47.9135C90.2858 47.9135 89.8946 47.9348 89.5086 47.9756L104.85 2.72803H39.6546L54.9747 47.936C54.7486 47.9218 54.5222 47.9144 54.2957 47.9139C48.1272 47.9139 43.1262 52.914 43.1262 59.0834C43.1262 64.0695 46.3941 68.2911 50.904 69.7273C48.5221 73.8533 45.5246 77.5697 42.1215 80.7807C37.4938 85.146 32.1978 88.4565 26.4698 90.496C19.6499 86.9926 16.4296 79.2012 19.3353 72.3698C19.6635 71.5981 19.9986 70.8162 20.3187 70.0377C25.2593 68.8846 28.9414 64.4555 28.9414 59.1633C28.9414 52.9944 23.9404 47.9939 17.7715 47.9939C11.6026 47.9939 6.60204 52.9944 6.60204 59.1633C6.60204 62.9461 8.48388 66.2876 11.3611 68.3081C8.59655 74.6024 4.53269 81.1901 3.26651 88.8251C1.74904 97.9749 3.2614 107.688 11.1753 113.173C29.6059 125.947 49.6123 105.254 70.7063 100.052C78.351 98.1671 86.7428 98.4707 93.478 94.5701C98.536 91.6406 101.871 86.7855 102.817 81.3351C103.752 75.9507 102.389 70.5896 99.2545 66.2425C100.936 64.2361 101.856 61.7009 101.852 59.083Z"
              fill="#99425B"/>
        <path d="M100.129 80.8682C99.3079 85.6005 96.3852 89.7336 92.1113 92.2094C88.127 94.5169 83.3526 95.2057 78.2973 95.9344C75.5893 96.3247 72.7891 96.7291 70.0535 97.4034C62.8203 99.187 55.8142 102.667 49.0394 106.032C35.4805 112.767 23.771 118.583 12.73 110.931C4.64222 105.325 5.01552 94.9544 5.95772 89.2715C6.83104 84.006 9.19206 79.1569 11.4748 74.4676C11.8638 73.6706 12.2495 72.8721 12.6322 72.0721C13.7829 72.5321 14.9904 72.835 16.222 72.9726C13.8979 80.6424 17.5528 88.9819 25.2234 92.9225L26.2736 93.462L27.385 93.0662C33.4494 90.9063 39.0375 87.4411 43.9938 82.7645C47.1975 79.7419 49.9523 76.3979 52.2164 72.8247C52.9047 72.9285 53.5998 72.9807 54.2959 72.9807C61.3364 72.9807 67.1665 67.7174 68.0687 60.9197C70.9506 60.8142 74.0115 60.8134 76.9099 60.9188C77.8113 67.7174 83.6422 72.9811 90.6827 72.9811C93.6267 72.9811 96.3572 72.0585 98.6068 70.4913C100.168 73.6882 100.751 77.2852 100.129 80.8682ZM17.7722 50.7217C22.427 50.7217 26.2137 54.5088 26.2137 59.1637C26.2137 60.8355 25.723 62.3946 24.8807 63.7076C23.4776 65.896 21.0924 67.396 18.3521 67.5831C18.1604 67.5958 17.9669 67.6052 17.7722 67.6052C16.7347 67.6052 15.7411 67.416 14.8223 67.0724C12.9718 66.3766 11.4222 65.0568 10.4408 63.3406C9.71205 62.0692 9.32914 60.6291 9.33024 59.1637C9.33024 54.5088 13.1173 50.7217 17.7722 50.7217ZM45.8548 59.0833C45.8548 54.8541 48.9812 51.3425 53.0433 50.7353C53.4524 50.6737 53.8707 50.6418 54.2963 50.6418C57.0026 50.6418 59.4121 51.9237 60.9572 53.9102C61.3442 54.4055 61.6748 54.9424 61.9428 55.511C62.4675 56.6287 62.739 57.8485 62.7378 59.0833C62.7378 59.7581 62.6562 60.4141 62.5061 61.0434C61.6834 64.4873 58.7467 67.12 55.148 67.4823C54.8682 67.5104 54.5842 67.5248 54.2963 67.5248C52.6726 67.5262 51.0834 67.0563 49.7214 66.1723C47.3974 64.6668 45.8548 62.0523 45.8548 59.0833ZM81.0873 49.0448C79.2503 50.7983 77.9283 53.021 77.2645 55.4723C74.0827 55.355 70.8976 55.355 67.7158 55.4723C67.0015 52.8226 65.5211 50.4849 63.5291 48.7094L72.2644 31.0466L81.0873 49.0453V49.0448ZM43.4598 5.45675H101.045L87.4437 45.5703C86.8586 45.7104 86.2832 45.8887 85.7213 46.1039L72.2857 18.6956L58.8117 45.9402C58.2244 45.7386 57.6241 45.5768 57.0149 45.4559L43.4598 5.45675ZM99.1242 59.0837C99.1242 59.9298 98.998 60.747 98.7654 61.5187C98.2136 63.3355 97.0677 64.9144 95.5115 66.0023C94.0971 66.9949 92.4107 67.5268 90.6827 67.5252C86.7851 67.5252 83.4972 64.8691 82.5303 61.2721C82.3384 60.5585 82.2411 59.8227 82.2412 59.0837C82.2412 57.9298 82.4742 56.8294 82.8952 55.8269C83.1124 55.3139 83.3798 54.8237 83.6936 54.3634C85.2128 52.121 87.7762 50.6422 90.6827 50.6422C90.9493 50.6422 91.2121 50.6558 91.4727 50.6805C95.7585 51.0797 99.1247 54.695 99.1247 59.0837H99.1242ZM104.581 59.0837C104.581 52.2987 99.6919 46.6375 93.2529 45.4283L108.655 0H35.8499L51.2763 45.5201C45.061 46.9032 40.3989 52.4573 40.3989 59.0833C40.3989 64.0588 43.0282 68.4287 46.9688 70.8846C45.0733 73.7086 42.8259 76.366 40.2501 78.7963C36.165 82.6497 31.6143 85.5724 26.7082 87.4955C21.7663 84.3913 19.6774 78.537 21.8467 73.4374L22.0167 73.0377L22.3356 72.2877C27.7635 70.3943 31.6696 65.2284 31.6696 59.1637C31.6696 51.5002 25.4352 45.2658 17.7722 45.2658C10.1087 45.2658 3.87434 51.5002 3.87434 59.1637C3.87434 63.0315 5.46451 66.5342 8.02324 69.0563C7.54602 70.0674 7.06158 71.0751 6.56998 72.0793C4.23022 76.8843 1.5788 82.3304 0.575803 88.3786C-1.41574 100.39 1.79692 109.992 9.62234 115.415C14.3707 118.706 19.1931 120 24.0457 120C33.1828 120 42.4262 115.409 51.4668 110.919C57.9775 107.685 64.7103 104.341 71.3605 102.701C73.835 102.091 76.381 101.723 79.0766 101.335C84.4224 100.563 89.9497 99.7662 94.8461 96.9306C100.522 93.6431 104.407 88.1286 105.505 81.8019C106.448 76.3702 105.314 70.9301 102.546 66.316C103.879 64.1395 104.584 61.636 104.581 59.0833L104.581 59.0837Z"
              fill="white"/>
    </g>
    <g id="mongodb">
        <path d="M84.7409 47.7544C78.7206 19.869 66.1565 12.4436 62.9684 7.19463C61.2356 4.33931 59.4687 0 59.4687 0C59.296 2.47333 58.9897 4.03976 56.9795 5.91949C52.9537 9.68719 35.8456 24.3238 34.4086 56.0098C33.0684 85.5523 55.087 103.772 58.0134 105.655C60.2488 106.809 62.9867 105.677 64.2955 104.619C74.9069 96.9681 89.4237 76.5686 84.7279 47.7544"
              fill="#10AA50"/>
        <path d="M60.3807 89.9189C59.8284 97.2345 59.4305 101.491 58.0249 105.663C58.0249 105.663 58.9515 112.624 59.5954 120H61.891C62.439 114.805 63.2754 109.648 64.396 104.556C61.4224 103.025 60.4932 96.3358 60.3807 89.9189Z"
              fill="#B8C4C2"/>
        <path d="M64.3943 104.561C61.3894 103.104 60.5204 96.2809 60.3869 89.9189C61.1272 79.43 61.3413 68.9075 61.0282 58.395C60.8711 52.8795 61.1067 7.30163 59.7351 0.62915C60.29 1.93452 61.6302 5.00144 62.9704 7.19171C66.1716 12.4434 78.7252 19.8689 84.7403 47.757C89.4283 76.497 74.9979 96.8607 64.3943 104.561Z"
              fill="#12924F"/>
    </g>
    <g id="nestjs">
        <path fill-rule="evenodd" clip-rule="evenodd"
              d="M70.6686 0C69.8448 0.00936615 69.0282 0.154155 68.2514 0.428571C75.1557 4.96286 67.0514 11.5457 70.8228 17.1429C70.559 15.2693 70.8562 13.3595 71.677 11.6547C72.4977 9.94995 73.8052 8.52656 75.4343 7.56429C76.6557 6.54857 77.4357 6.18429 77.1743 4.50429C76.7628 1.75286 73.0943 0 70.6686 0ZM80.5257 1.77429C79.5743 6.58714 78.3828 6.76286 74.8557 9.86143C73.4786 10.9449 72.5065 12.4606 72.096 14.164C71.6855 15.8675 71.8605 17.6596 72.5928 19.2514C58.0214 13.5943 39.3443 10.1743 25.6514 19.9629C20.7271 23.4814 17.7186 28.5343 11.6457 30.5957C7.71998 31.9371 3.86284 31.5429 1.41141 35.4343C0.511723 36.558 0.041734 37.9654 0.085715 39.4042C0.129696 40.843 0.68477 42.2191 1.65141 43.2857C2.37998 44.0357 3.79427 44.5157 4.37712 45.2786C4.7157 45.7071 4.70712 46.1357 5.02855 46.7057C5.59525 48.0348 6.41637 49.2403 7.4457 50.2543C8.07141 50.7729 10.24 51.2786 10.6086 51.8314C11.0671 52.5214 9.86712 55.26 10.8743 55.6886C11.5557 56.0014 13.54 52.5 13.7328 52.1914C13.3386 54.9471 12.82 59.8371 15.9186 55.7657C17.3886 53.8329 17.4786 53.1943 19.9514 52.7657C24.8319 51.9298 29.8326 52.1146 34.6381 53.3084C39.4436 54.5023 43.9494 56.6792 47.8713 59.7019C51.7932 62.7245 55.046 66.5273 57.4244 70.8702C59.8028 75.2131 61.2552 80.0019 61.69 84.9343C61.2271 82.7914 58.4286 79.3629 55.8228 80.1771C54.7128 80.52 54.3014 82.4357 53.5728 83.5457C52.653 84.9541 51.5178 86.2094 50.2085 87.2657C50.4321 85.1881 50.328 83.0882 49.9 81.0429C49.12 84.2486 47.5557 89.5671 43.6171 88.7057C42.3051 88.5054 41.0757 87.9403 40.0694 87.0749C39.0631 86.2095 38.3202 85.0787 37.9257 83.8114C37.4157 80.5543 40.8571 76.7357 35.3243 76.4657C24.2243 75.9214 26.7914 92.2457 33.3443 96.5014C31.8383 96.668 30.3692 97.0776 28.9943 97.7143C33.1535 100.131 37.8401 101.496 42.6468 101.69C47.4534 101.883 52.2346 100.901 56.575 98.8262C60.9153 96.7519 64.6835 93.6491 67.5519 89.7873C70.4203 85.9255 72.3023 81.4217 73.0343 76.6671C74.5607 83.6224 73.5801 90.8933 70.2657 97.1957C68.8785 99.8304 67.1013 102.24 64.9943 104.344C63.7085 105.63 61.1628 107.044 60.3271 108.377C65.5284 107.689 70.6112 106.294 75.4343 104.229C70.4421 111.031 63.8068 116.457 56.1486 120C64.3718 119.418 72.3209 116.798 79.279 112.377C86.2371 107.956 91.9854 101.873 96.0057 94.6757C94.7245 101.874 91.879 108.703 87.67 114.681C93.3311 110.891 98.1475 105.972 101.817 100.232C105.486 94.4917 107.929 88.0549 108.991 81.3257C110.045 86.2519 110.347 91.3092 109.887 96.3257C114.539 89.8646 117.682 82.4422 119.085 74.6051C120.487 66.7682 120.114 58.7163 117.991 51.0429C116.367 45.0782 113.932 39.3648 110.753 34.0629C109.523 31.9968 108.176 30.0021 106.72 28.0886C106.15 27.3471 103.103 24.6343 103.103 23.8029C103.077 23.8857 103.056 23.8857 103.039 23.8029C103.039 37.8 88.0386 46.5643 75.4771 42.93C80.3398 42.5484 84.9267 40.5192 88.48 37.1778C92.0333 33.8365 94.3404 29.3829 95.02 24.5529C95.5933 19.6687 94.4651 14.7362 91.8256 10.5868C89.1861 6.43752 85.1968 3.32511 80.53 1.77429H80.5257Z"
              fill="url(#paint0_linear_1_3284)"/>
        <defs>
            <linearGradient id="paint0_linear_1_3284" x1="59.9928" y1="120" x2="59.9928" y2="0"
                            gradientUnits="userSpaceOnUse">
                <stop stop-color="#FFB199"/>
                <stop offset="1" stop-color="#FF0844"/>
            </linearGradient>
        </defs>
    </g>
    <g id="postgresql">
        <path d="M116.086 71.8826C115.386 69.7638 113.554 68.2881 111.184 67.9339C110.066 67.7671 108.787 67.8382 107.272 68.1504C104.632 68.695 102.674 68.9024 101.245 68.9425C106.64 59.8342 111.026 49.4475 113.552 39.6702C117.635 23.8605 115.453 16.6581 112.903 13.4004C106.155 4.77748 96.309 0.145172 84.431 0.00343171C78.0947 -0.0740469 72.5322 1.177 69.6304 2.07667C66.9286 1.59995 64.0236 1.33378 60.9755 1.28456C55.2617 1.19341 50.2133 2.43899 45.8996 4.99898C43.5114 4.19138 39.6785 3.0529 35.2522 2.32642C24.8418 0.617335 16.4513 1.94906 10.3141 6.28467C2.88255 11.5341 -0.562518 20.6547 0.0746296 33.3931C0.276985 37.4374 2.53936 49.7429 6.10155 61.413C8.14881 68.1208 10.3319 73.691 12.5902 77.9706C15.7928 84.039 19.2196 87.6126 23.0666 88.896C25.2228 89.6143 29.1405 90.1174 33.261 86.6856C33.7833 87.3182 34.4801 87.9467 35.4049 88.5305C36.5794 89.2711 38.0154 89.8763 39.4497 90.235C44.6184 91.5271 49.4599 91.2039 53.5905 89.3928C53.616 90.1274 53.6356 90.8293 53.652 91.4355C53.6793 92.4185 53.7067 93.3825 53.7427 94.284C53.9874 100.379 54.4022 105.119 55.6309 108.435C55.6983 108.617 55.789 108.895 55.8847 109.19C56.4977 111.067 57.5227 114.209 60.1306 116.669C62.8309 119.218 66.0973 120 69.0889 120C70.5893 120 72.0208 119.803 73.2764 119.534C77.7519 118.575 82.835 117.114 86.512 111.878C89.9885 106.928 91.6785 99.4736 91.9843 87.7274C92.0239 87.3952 92.0604 87.078 92.0955 86.7758L92.1684 86.1551L92.9874 86.2271L93.1984 86.2412C97.7569 86.449 103.331 85.4824 106.754 83.8922C109.459 82.6371 118.127 78.0608 116.086 71.8826Z"
              fill="black"/>
        <path d="M108.293 73.0839C94.7383 75.88 93.8063 71.291 93.8063 71.291C108.117 50.0559 114.1 23.1011 108.937 16.5041C94.8527 -1.49149 70.472 7.01931 70.065 7.23989L69.9342 7.26359C67.2562 6.70757 64.2596 6.37669 60.8911 6.32154C54.7584 6.22128 50.1061 7.92945 46.5758 10.6066C46.5758 10.6066 3.08295 -7.31104 5.10605 33.141C5.53628 41.7466 17.4406 98.2563 31.6393 81.1878C36.829 74.9462 41.8437 69.669 41.8437 69.669C44.3339 71.3234 47.3155 72.1674 50.4411 71.8643L50.684 71.6583C50.6083 72.4331 50.643 73.191 50.7811 74.0884C47.1231 78.1752 48.1983 78.8926 40.8861 80.3979C33.4869 81.9229 37.8335 84.6374 40.6715 85.3474C44.112 86.2075 52.0713 87.4261 57.4492 79.8975L57.235 80.7566C58.6679 81.9047 59.6742 88.2233 59.5056 93.9517C59.337 99.6796 59.2244 103.612 60.3533 106.684C61.4831 109.756 62.6084 116.667 72.2212 114.608C80.253 112.887 84.4154 108.426 84.9947 100.985C85.4053 95.6958 86.3355 96.4779 86.3939 91.7485L87.1399 89.5099C87.9999 82.3394 87.2767 80.026 92.2248 81.1021L93.428 81.2078C97.0695 81.3732 101.837 80.6217 104.635 79.3214C110.659 76.5258 114.232 71.8575 108.292 73.0839H108.293Z"
              fill="#336791"/>
        <path d="M49.1223 36.9892C47.9009 36.8192 46.7948 36.9765 46.2351 37.4003C45.9206 37.6387 45.8231 37.9149 45.7967 38.1049C45.7265 38.6085 46.0793 39.1654 46.2962 39.4526C46.9096 40.2656 47.8057 40.8244 48.6926 40.9475C48.8211 40.9657 48.9491 40.9739 49.0763 40.9739C50.5552 40.9739 51.9002 39.8222 52.0187 38.9722C52.1668 37.9076 50.6213 37.1979 49.1223 36.9897"
              fill="white"/>
        <path d="M89.5838 37.0233C89.4671 36.1888 87.9823 35.9509 86.5731 36.1469C85.1657 36.3429 83.8012 36.9782 83.9151 37.8145C84.0063 38.4649 85.1808 39.5751 86.5708 39.5751C86.6884 39.5751 86.8069 39.5673 86.9263 39.5505C87.8542 39.422 88.5351 38.8327 88.8587 38.4931C89.3509 37.9754 89.6362 37.3984 89.5838 37.0233Z"
              fill="white"/>
        <path d="M112.803 72.7665C112.286 71.2037 110.623 70.701 107.859 71.2716C99.653 72.9652 96.7143 71.7921 95.7495 71.0815C102.128 61.3648 107.375 49.619 110.206 38.6604C111.546 33.4693 112.287 28.6483 112.348 24.7188C112.415 20.406 111.68 17.2366 110.165 15.3006C104.057 7.49576 95.0923 3.30918 84.2407 3.19433C76.7804 3.11047 70.4773 5.01963 69.2554 5.55651C66.6822 4.91663 63.8771 4.52377 60.823 4.47364C55.2227 4.38294 50.3817 5.72378 46.3737 8.45695C44.6327 7.80886 40.1335 6.2643 34.6312 5.37786C25.1186 3.84652 17.5594 5.00687 12.1651 8.82839C5.72846 13.3887 2.75693 21.5403 3.33255 33.0564C3.52625 36.9308 5.73393 48.8497 9.21774 60.2642C13.8036 75.2877 18.7886 83.7926 24.0335 85.5422C24.6474 85.7469 25.3552 85.89 26.1359 85.89C28.0491 85.89 30.3949 85.0277 32.8355 82.0935C35.8123 78.5225 38.8916 75.0381 42.0696 71.6448C44.1314 72.7514 46.3965 73.3694 48.7131 73.4314C48.7177 73.492 48.7236 73.5526 48.7291 73.6128C48.3303 74.0883 47.9398 74.5707 47.5578 75.0598C45.9526 77.0975 45.6185 77.5218 40.4516 78.5856C38.9818 78.8891 35.0783 79.6935 35.0208 82.4299C34.9589 85.4196 39.6354 86.6752 40.1682 86.8083C42.0249 87.2732 43.8138 87.5024 45.5196 87.5024C49.6684 87.5024 53.3195 86.1388 56.2372 83.5004C56.1474 94.1588 56.5918 104.661 57.8716 107.861C58.9198 110.481 61.4802 116.883 69.5681 116.882C70.7549 116.882 72.0611 116.744 73.4981 116.436C81.9391 114.627 85.6048 110.896 87.0227 102.671C87.7815 98.2751 89.0836 87.7786 89.6961 82.1482C90.9886 82.5516 92.6526 82.7361 94.4515 82.7357C98.2033 82.7357 102.533 81.9386 105.247 80.6784C108.297 79.2619 113.801 75.7863 112.803 72.7665ZM92.7014 34.7199C92.6736 36.3821 92.4448 37.8911 92.2023 39.4662C91.9412 41.1602 91.6714 42.9117 91.6035 45.0378C91.5365 47.1069 91.7949 49.2581 92.0446 51.3386C92.5496 55.5407 93.0678 59.8667 91.062 64.1353C90.7288 63.545 90.432 62.9348 90.1733 62.3082C89.924 61.7039 89.3826 60.7331 88.6328 59.3896C85.7165 54.1593 78.8869 41.9113 82.3831 36.9135C83.4245 35.4259 86.0674 33.8964 92.7014 34.7199ZM84.66 6.56009C94.3831 6.77475 102.074 10.4121 107.52 17.3706C111.696 22.708 107.097 46.9939 93.7833 67.9455C93.6495 67.7752 93.5149 67.6055 93.3795 67.4364L93.2109 67.2258C96.6514 61.5439 95.9787 55.9222 95.3799 50.938C95.1338 48.8926 94.9013 46.9606 94.9606 45.1458C95.0216 43.2225 95.2759 41.5727 95.5221 39.9775C95.8242 38.0118 96.1319 35.9778 96.0471 33.5801C96.1104 33.3285 96.136 33.0313 96.1027 32.6786C95.8862 30.3793 93.2611 23.4978 87.9105 17.2695C84.9836 13.8627 80.7154 10.0503 74.8877 7.4789C77.3943 6.95933 80.8221 6.47486 84.66 6.56009ZM30.2527 79.946C27.5638 83.1791 25.707 82.5593 25.0963 82.356C21.1175 81.0289 16.5007 72.6193 12.4304 59.2838C8.90828 47.745 6.85008 36.1419 6.68692 32.8882C6.17283 22.5982 8.66718 15.4268 14.1012 11.573C22.9447 5.30175 37.4842 9.05536 43.3265 10.9591C43.2427 11.042 43.1552 11.1195 43.0722 11.2038C33.4849 20.8859 33.7124 37.428 33.7361 38.4393C33.7352 38.8295 33.768 39.3818 33.8126 40.1416C33.9776 42.924 34.2848 48.1023 33.4644 53.9665C32.7024 59.416 34.3823 64.7497 38.0726 68.6004C38.4513 68.9948 38.8494 69.3702 39.2653 69.7252C37.6228 71.4844 34.0528 75.3748 30.2527 79.946ZM40.4977 66.2765C37.5234 63.1728 36.1725 58.8559 36.791 54.4314C37.6569 48.2367 37.3375 42.8415 37.1656 39.9429C37.1415 39.5373 37.1201 39.1818 37.1077 38.9015C38.5083 37.6595 44.9987 34.1821 49.6274 35.2427C51.7394 35.7262 53.0264 37.1646 53.5615 39.6384C56.3307 52.4466 53.9279 57.7848 51.9973 62.0749C51.5994 62.9586 51.2234 63.794 50.9026 64.6581L50.6537 65.3262C50.0239 67.0153 49.4378 68.5858 49.0746 70.077C45.9125 70.0679 42.8366 68.7171 40.4977 66.276V66.2765ZM40.9831 83.5497C40.0597 83.319 39.2293 82.9184 38.7421 82.5862C39.1491 82.3948 39.8733 82.1341 41.1293 81.8752C47.2078 80.6242 48.1466 79.7409 50.1966 77.1381C50.6665 76.541 51.1993 75.8647 51.9372 75.0407L51.9381 75.0398C53.0369 73.8092 53.5396 74.018 54.4511 74.3962C55.1899 74.7016 55.9095 75.6277 56.2012 76.6468C56.3393 77.1281 56.4943 78.0414 55.987 78.7524C51.7047 84.7483 45.4645 84.6713 40.9831 83.5497ZM72.7944 113.152C65.3583 114.745 62.7254 110.951 60.9903 106.614C59.8705 103.813 59.32 91.1863 59.7105 77.2415C59.7156 77.056 59.6891 76.8769 59.6381 76.7083C59.5924 76.3753 59.523 76.046 59.4302 75.723C58.8496 73.6939 57.4345 71.9967 55.7368 71.293C55.0623 71.0136 53.8244 70.5009 52.3369 70.8815C52.6541 69.5743 53.2042 68.0981 53.8007 66.4998L54.051 65.8276C54.3326 65.0696 54.6863 64.2844 55.06 63.4531C57.0804 58.9648 59.8473 52.8171 56.8443 38.9288C55.7195 33.7268 51.9631 31.1864 46.2689 31.7766C42.8553 32.1299 39.732 33.5071 38.1742 34.297C37.8392 34.4665 37.533 34.6306 37.2468 34.7901C37.6815 29.5489 39.3241 19.7538 45.4686 13.5564C49.3375 9.65513 54.4898 7.72819 60.7674 7.83211C73.1367 8.03446 81.0687 14.3822 85.5451 19.6722C89.4026 24.2302 91.4913 28.822 92.3249 31.2986C86.056 30.6609 81.7924 31.8983 79.6312 34.9884C74.9292 41.7099 82.2035 54.7554 85.6996 61.0253C86.3408 62.1742 86.8941 63.1673 87.0682 63.5894C88.2067 66.3485 89.6806 68.1907 90.7567 69.5351C91.0866 69.9472 91.4066 70.3468 91.65 70.696C89.7513 71.2433 86.3408 72.508 86.6517 78.8298C86.401 82.0019 84.6185 96.8532 83.713 102.1C82.5175 109.032 79.9666 111.614 72.7944 113.152V113.152ZM103.833 77.6321C101.892 78.5331 98.6426 79.209 95.5562 79.3544C92.1472 79.5139 90.4117 78.9725 90.0033 78.6393C89.8119 74.6998 91.2781 74.2882 92.8299 73.8525C93.0737 73.7842 93.3116 73.7172 93.5413 73.637C93.684 73.7532 93.8403 73.8685 94.0117 73.9815C96.7517 75.7899 101.639 75.985 108.538 74.5608L108.614 74.5457C107.683 75.4158 106.091 76.5834 103.833 77.6321Z"
              fill="white"/>
    </g>
    <g id="react">
        <path d="M18.6789 15.9759C18.6789 14.5415 17.4796 13.3785 16 13.3785C14.5206 13.3785 13.3211 14.5415 13.3211 15.9759C13.3211 17.4105 14.5206 18.5734 16 18.5734C17.4796 18.5734 18.6789 17.4105 18.6789 15.9759Z"
              fill="#53C1DE"/>
        <path fill-rule="evenodd" clip-rule="evenodd"
              d="M24.7004 11.1537C25.2661 8.92478 25.9772 4.79148 23.4704 3.39016C20.9753 1.99495 17.7284 4.66843 16.0139 6.27318C14.3044 4.68442 10.9663 2.02237 8.46163 3.42814C5.96751 4.82803 6.73664 8.8928 7.3149 11.1357C4.98831 11.7764 1 13.1564 1 15.9759C1 18.7874 4.98416 20.2888 7.29698 20.9289C6.71658 23.1842 5.98596 27.1909 8.48327 28.5877C10.9973 29.9932 14.325 27.3945 16.0554 25.7722C17.7809 27.3864 20.9966 30.0021 23.4922 28.6014C25.9956 27.1963 25.3436 23.1184 24.7653 20.8625C27.0073 20.221 31 18.7523 31 15.9759C31 13.1835 26.9903 11.7923 24.7004 11.1537ZM24.4162 19.667C24.0365 18.5016 23.524 17.2623 22.8971 15.9821C23.4955 14.7321 23.9881 13.5088 24.3572 12.3509C26.0359 12.8228 29.7185 13.9013 29.7185 15.9759C29.7185 18.07 26.1846 19.1587 24.4162 19.667ZM22.85 27.526C20.988 28.571 18.2221 26.0696 16.9478 24.8809C17.7932 23.9844 18.638 22.9422 19.4625 21.7849C20.9129 21.6602 22.283 21.4562 23.5256 21.1777C23.9326 22.7734 24.7202 26.4763 22.85 27.526ZM9.12362 27.5111C7.26143 26.47 8.11258 22.8946 8.53957 21.2333C9.76834 21.4969 11.1286 21.6865 12.5824 21.8008C13.4123 22.9332 14.2816 23.9741 15.1576 24.8857C14.0753 25.9008 10.9945 28.557 9.12362 27.5111ZM2.28149 15.9759C2.28149 13.874 5.94207 12.8033 7.65904 12.3326C8.03451 13.5165 8.52695 14.7544 9.12123 16.0062C8.51925 17.2766 8.01977 18.5341 7.64085 19.732C6.00369 19.2776 2.28149 18.0791 2.28149 15.9759ZM9.1037 4.50354C10.9735 3.45416 13.8747 6.00983 15.1159 7.16013C14.2444 8.06754 13.3831 9.1006 12.5603 10.2265C11.1494 10.3533 9.79875 10.5569 8.55709 10.8297C8.09125 9.02071 7.23592 5.55179 9.1037 4.50354ZM20.3793 11.5771C21.3365 11.6942 22.2536 11.85 23.1147 12.0406C22.8562 12.844 22.534 13.6841 22.1545 14.5453C21.6044 13.5333 21.0139 12.5416 20.3793 11.5771ZM16.0143 8.0481C16.6054 8.66897 17.1974 9.3623 17.7798 10.1145C16.5985 10.0603 15.4153 10.0601 14.234 10.1137C14.8169 9.36848 15.414 8.67618 16.0143 8.0481ZM9.8565 14.5444C9.48329 13.6862 9.16398 12.8424 8.90322 12.0275C9.75918 11.8418 10.672 11.69 11.623 11.5748C10.9866 12.5372 10.3971 13.5285 9.8565 14.5444ZM11.6503 20.4657C10.6679 20.3594 9.74126 20.2153 8.88556 20.0347C9.15044 19.2055 9.47678 18.3435 9.85796 17.4668C10.406 18.4933 11.0045 19.4942 11.6503 20.4657ZM16.0498 23.9915C15.4424 23.356 14.8365 22.6531 14.2448 21.8971C15.4328 21.9423 16.6231 21.9424 17.811 21.891C17.2268 22.6608 16.6369 23.3647 16.0498 23.9915ZM22.1667 17.4222C22.5677 18.3084 22.9057 19.1657 23.1742 19.9809C22.3043 20.1734 21.3652 20.3284 20.3757 20.4435C21.015 19.4607 21.6149 18.4536 22.1667 17.4222ZM18.7473 20.5941C16.9301 20.72 15.1016 20.7186 13.2838 20.6044C12.2509 19.1415 11.3314 17.603 10.5377 16.0058C11.3276 14.4119 12.2404 12.8764 13.2684 11.4158C15.0875 11.2825 16.9178 11.2821 18.7369 11.4166C19.7561 12.8771 20.6675 14.4086 21.4757 15.9881C20.6771 17.5812 19.7595 19.1198 18.7473 20.5941ZM22.8303 4.4666C24.7006 5.51254 23.8681 9.22726 23.4595 10.8426C22.2149 10.5641 20.8633 10.3569 19.4483 10.2281C18.6239 9.09004 17.7698 8.05518 16.9124 7.15949C18.1695 5.98441 20.9781 3.43089 22.8303 4.4666Z"
              fill="#53C1DE"/>
    </g>
    <g id="reactNative">
        <g clip-path="url(#clip0_1_3299)">
            <path d="M59.9999 63.6073C65.9173 63.6073 70.7142 58.8103 70.7142 52.893C70.7142 46.9757 65.9173 42.1787 59.9999 42.1787C54.0826 42.1787 49.2856 46.9757 49.2856 52.893C49.2856 58.8103 54.0826 63.6073 59.9999 63.6073Z"
                  fill="#F5DE19"/>
            <path d="M60 77.4583C47.122 77.7698 34.2763 76.0339 21.9429 72.3155C16.2455 70.5094 10.9317 67.6643 6.27 63.924C4.49113 62.6463 3.00974 60.9988 1.92747 59.0946C0.845197 57.1905 0.18767 55.0748 0 52.8926C0 45.8083 7.78286 38.8655 20.82 34.3226C33.4831 30.2972 46.714 28.3463 60 28.5455C73.1087 28.3623 86.1623 30.2779 98.6657 34.2197C104.153 35.969 109.286 38.6765 113.829 42.2169C115.577 43.4351 117.036 45.0228 118.103 46.8677C119.169 48.7126 119.817 50.7695 120 52.8926C120 60.2555 111.3 67.7169 97.2857 72.354C85.1911 75.9513 72.6164 77.6728 60 77.4583ZM60 33.6712C47.2891 33.5013 34.6321 35.3559 22.5043 39.1655C10.5043 43.3526 5.12571 49.0783 5.12571 52.8797C5.12571 56.8569 10.9071 63.1097 23.6014 67.4512C35.4003 70.9905 47.6855 72.6381 60 72.3326C72.0703 72.5484 84.1025 70.9152 95.6786 67.4897C108.857 63.1226 114.857 56.8612 114.857 52.8926C114.641 51.5307 114.145 50.2285 113.4 49.0681C112.655 47.9078 111.677 46.9145 110.529 46.1512C106.465 43.0104 101.879 40.6108 96.9814 39.0626C85.0201 35.3073 72.5356 33.4872 60 33.6712Z"
                  fill="#F5DE19"/>
            <path d="M35.6555 106.331C33.6562 106.377 31.6805 105.892 29.9298 104.925C23.7927 101.385 21.6669 91.1767 24.2426 77.6124C27.0826 64.6313 32.0032 52.1951 38.8141 40.7852C45.2029 29.3385 53.382 18.9877 63.0412 10.1252C67.2976 6.24538 72.2078 3.1504 77.5441 0.983791C79.4742 0.0792446 81.5797 -0.389648 83.7112 -0.389648C85.8428 -0.389648 87.9482 0.0792446 89.8784 0.983791C96.2598 4.66093 98.3727 15.9238 95.3941 30.3795C92.4665 42.6562 87.6736 54.4114 81.1827 65.2352C75.0187 76.5468 67.0971 86.8074 57.7141 95.6338C53.3032 99.6657 48.1841 102.846 42.6155 105.015C40.3862 105.843 38.033 106.287 35.6555 106.331ZM43.2541 43.3309C36.7574 54.2566 32.0412 66.1468 29.2827 78.5552C26.9127 91.0481 29.1884 98.5609 32.4969 100.472C35.9255 102.457 44.2484 100.575 54.3541 91.7467C63.3113 83.2907 70.8722 73.4689 76.7555 62.6466C82.9738 52.2989 87.5713 41.0601 90.3884 29.3209C93.1912 15.7138 90.7698 7.38236 87.3326 5.40236C86.0444 4.90876 84.6678 4.6878 83.2898 4.75346C81.9118 4.81911 80.5624 5.16995 79.3269 5.78379C74.577 7.74385 70.2101 10.5265 66.4269 14.0038C57.1984 22.4929 49.3856 32.4021 43.2841 43.3566L43.2541 43.3309Z"
                  fill="#F5DE19"/>
            <path d="M84.326 106.387C78.5188 106.387 71.1431 102.872 63.4631 96.2681C53.6347 87.325 45.3173 76.8512 38.8331 65.2524C32.1077 53.9996 27.226 41.7433 24.3731 28.9481C23.1359 23.3187 22.9066 17.5146 23.696 11.8052C23.8785 9.68726 24.5234 7.63511 25.5853 5.7935C26.6471 3.95188 28.1001 2.36565 29.8417 1.14666C36.2145 -2.54334 47.0274 1.24951 58.0631 11.0467C67.2371 19.7132 75.0276 29.7354 81.1631 40.7638C87.8844 51.7539 92.8173 63.7418 95.7774 76.2795C97.0679 82.1154 97.267 88.1397 96.3645 94.0481C96.1498 96.227 95.4665 98.3337 94.3613 100.224C93.2561 102.114 91.7553 103.742 89.9617 104.998C88.2395 105.953 86.2944 106.432 84.326 106.387ZM43.2688 62.6724C49.4892 73.7571 57.4343 83.7811 66.806 92.3681C76.4445 100.661 84.0903 102.444 87.3774 100.511C90.806 98.5181 93.3345 90.3838 90.7288 77.2224C87.874 65.2521 83.1426 53.8091 76.7103 43.3181C70.8552 32.7629 63.4191 23.1661 54.6603 14.8609C44.2717 5.63808 35.846 3.57666 32.4131 5.56523C31.3432 6.43472 30.4651 7.51661 29.8344 8.7426C29.2037 9.96858 28.8341 11.312 28.7488 12.6881C28.0674 17.7799 28.2894 22.952 29.4045 27.9667C32.1487 40.203 36.8306 51.9221 43.2731 62.6809L43.2688 62.6724Z"
                  fill="#F5DE19"/>
        </g>
        <defs>
            <clipPath id="clip0_1_3299">
                <rect width="120" height="106" fill="white"/>
            </clipPath>
        </defs>
    </g>
    <g id="redux">
        <g clip-path="url(#clip0_1_3276)">
            <path d="M83.1473 82.6013C87.5756 82.1428 90.9352 78.3253 90.7823 73.7438C90.63 69.1627 86.812 65.4975 82.2309 65.4975H81.9258C77.1914 65.6503 73.5267 69.6207 73.6795 74.3546C73.8323 76.6453 74.7483 78.6305 76.1227 80.0049C70.9308 90.2368 62.9902 97.7194 51.0792 103.98C42.9858 108.256 34.5872 109.784 26.1886 108.715C19.3167 107.798 13.972 104.745 10.612 99.7046C5.72578 92.2219 5.26781 84.128 9.39093 76.0346C12.2925 70.2314 16.8731 65.9555 19.7747 63.8175C19.1639 61.8324 18.2475 58.4728 17.7895 56.0297C-4.35282 72.0643 -2.06204 93.7491 4.65703 103.98C9.69609 111.616 19.9275 116.35 31.2276 116.35C34.2816 116.35 37.3355 116.045 40.3898 115.282C59.9362 111.464 74.7487 99.8574 83.1473 82.6013ZM110.024 63.6652C98.4178 50.0738 81.315 42.5911 61.7686 42.5911H59.3255C57.9511 39.8424 55.0495 38.0096 51.8428 38.0096H51.5372C46.8037 38.1624 43.1391 42.1327 43.2914 46.8671C43.4442 51.4482 47.2617 55.1133 51.8428 55.1133H52.148C55.5075 54.9605 58.4091 52.8225 59.6306 49.921H62.3794C73.9852 49.921 84.9797 53.2805 94.9059 59.8472C102.541 64.8868 108.038 71.4535 111.092 79.3941C113.688 85.808 113.535 92.0691 110.787 97.4143C106.511 105.508 99.3342 109.936 89.8664 109.936C83.7581 109.936 77.9555 108.104 74.9011 106.729C73.2216 108.256 70.1672 110.7 68.0292 112.227C74.5959 115.281 81.315 116.961 87.7284 116.961C102.388 116.961 113.23 108.867 117.353 100.774C121.782 91.9163 121.476 76.6453 110.024 63.6652ZM32.4492 85.1968C32.602 89.7783 36.4195 93.443 41.0006 93.443H41.3062C46.0401 93.2907 49.7048 89.3199 49.552 84.586C49.3997 80.0044 45.5817 76.3397 41.0006 76.3397H40.6955C40.3898 76.3397 39.9314 76.3397 39.6267 76.4921C33.3656 66.1078 30.7697 54.8077 31.6861 42.5907C32.2964 33.428 35.3508 25.4869 40.6955 18.9202C45.1237 13.2699 53.6751 10.5211 59.4783 10.3688C75.6647 10.0632 82.5361 30.2208 82.9945 38.3147C84.9797 38.7727 88.3392 39.8419 90.63 40.6055C88.7972 15.8668 73.5267 3.03894 58.8675 3.03894C45.1237 3.03894 32.4492 12.9652 27.4097 27.6253C20.3855 47.1722 24.9666 65.9555 33.518 80.7685C32.7548 81.8372 32.2964 83.5172 32.4492 85.1972V85.1968Z"
                  fill="#764ABC"/>
        </g>
        <defs>
            <clipPath id="clip0_1_3276">
                <rect width="120" height="120" fill="white"/>
            </clipPath>
        </defs>
    </g>
    <g id="styledComponents">
        <g clip-path="url(#clip0_1_3263)">
            <path d="M68.7672 118.279C68.9472 117.872 69.4014 117.589 69.7314 117.246C74.7665 111.967 79.8444 106.735 84.811 101.391C86.3651 99.9558 87.5661 98.1804 88.3199 96.2036C89.0737 94.2269 89.36 92.1026 89.1562 89.9968C89.0003 89.0951 88.7957 88.2025 88.5434 87.3229C87.1893 88.6084 85.9294 89.7783 84.661 90.9567C82.6898 92.7908 80.7272 94.6334 78.7389 96.4461C77.5664 97.6415 76.0589 98.4531 74.4155 98.7737C72.772 99.0943 71.07 98.9087 69.5342 98.2416C67.9796 97.6705 66.6269 96.6553 65.6442 95.3221C64.6614 93.9889 64.0919 92.3965 64.0063 90.7425C63.9603 90.5297 63.8987 90.3206 63.8221 90.1168C62.3094 91.4024 60.861 92.5851 59.4254 93.8021L29.5875 119.085C29.3818 119.261 29.159 119.479 28.9662 119.65H68.7458L68.6858 119.612C68.4715 119.462 68.5829 118.673 68.7672 118.279Z"
                  fill="#FFCEBF"/>
            <path d="M27.1436 118.279C27.4974 117.818 27.9245 117.418 28.4077 117.096L69.7 82.0642C72.5168 79.6731 75.3207 77.2691 78.1118 74.8522C78.4567 74.6118 78.727 74.2791 78.8918 73.8924C79.5594 70.9831 79.654 67.9717 79.1703 65.0263C78.7418 65.3262 78.5104 65.4548 78.3132 65.6648C74.9322 68.6901 71.5683 71.7412 68.1702 74.7494C67.0445 75.8824 65.5885 76.6292 64.0116 76.8825C62.4346 77.1359 60.818 76.8826 59.3941 76.1592C57.9414 75.4734 56.7256 74.3709 55.9014 72.992C55.0773 71.6131 54.682 70.0201 54.766 68.4159V67.0275C54.1447 67.4817 53.6905 67.7859 53.2662 68.1287C36.7396 81.3615 20.2159 94.5842 3.69496 107.797C2.94933 108.393 2.05801 109.721 1.08098 108.431C0.103957 107.141 1.59092 106.61 2.34083 106.01C19.953 91.8774 37.5738 77.7576 55.2031 63.6507C58.0742 61.3496 58.2628 60.3854 56.3944 56.7301L55.2803 57.7757C52.2249 60.6168 49.1353 63.4193 46.1271 66.3075C44.8931 67.4978 43.3476 68.3148 41.6691 68.6641C39.9906 69.0135 38.2476 68.8809 36.6412 68.2818C35.0348 67.6827 33.6306 66.6415 32.5908 65.2784C31.5509 63.9153 30.9178 62.2858 30.7646 60.5782C30.1947 61.0067 29.7019 61.3196 29.2348 61.6838L3.09503 81.9443C2.64419 82.3864 2.13005 82.7591 1.5695 83.0498C1.14643 83.1777 0.692134 83.155 0.283936 82.9856V119.671H27.0922C26.9925 119.451 26.9453 119.21 26.9542 118.969C26.9631 118.727 27.028 118.491 27.1436 118.279Z"
                  fill="#FFCEBF"/>
            <path d="M99.5654 1.82096C98.8369 4.20782 98.1298 6.59897 97.4913 9.01154C96.9016 10.7164 96.9702 12.5802 97.6837 14.2371C98.3972 15.8941 99.7041 17.2246 101.348 17.9676C106.376 20.6107 112.043 21.798 117.709 21.3958V2.22806C117.646 1.80781 117.669 1.37914 117.777 0.968207C117.897 0.73576 118.049 0.520916 118.227 0.329712H99.5482C99.8353 0.663958 99.7368 1.25103 99.5654 1.82096Z"
                  fill="#FF6196"/>
            <path d="M62.0511 42.9976C61.9623 45.137 61.2139 47.1966 59.9085 48.894C55.242 54.9179 49.8829 60.3719 43.9418 65.1435C42.9837 66.0304 41.7694 66.591 40.473 66.745C39.1766 66.8989 37.8647 66.6383 36.7255 66.0005C35.5917 65.5161 34.6357 64.6925 33.9889 63.6428C33.342 62.5932 33.0361 61.369 33.1131 60.1384C33.2503 58.627 33.8779 57.202 34.9 56.0803C41.5435 49.7455 48.7415 44.019 56.4075 38.9695C56.9096 38.5758 57.5227 38.3499 58.1602 38.3237C58.7977 38.2976 59.4273 38.4725 59.9599 38.8238C60.66 39.2585 61.2259 39.8786 61.5951 40.6153C61.9642 41.352 62.122 42.1766 62.0511 42.9976Z"
                  fill="#FF87AF"/>
            <path d="M56.9127 68.97C56.8132 68.0228 56.9348 67.0654 57.2679 66.1731C57.6011 65.2809 58.1366 64.478 58.8325 63.8277C65.3374 57.8281 72.3164 52.3638 79.7014 47.4883C79.9243 47.3468 80.13 47.2054 80.3742 47.0597C81.0193 46.594 81.8009 46.356 82.596 46.3832C83.3912 46.4103 84.1547 46.7011 84.7665 47.2097C85.3585 47.7112 85.7774 48.3865 85.9635 49.1396C86.1497 49.8928 86.0937 50.6854 85.8036 51.4049C84.8693 54.5168 83.1449 57.3337 80.7984 59.5811C76.033 64.2758 71.1755 68.8762 66.2287 73.3795C65.4838 74.1456 64.5052 74.6422 63.447 74.7911C62.3889 74.9401 61.3112 74.7329 60.3837 74.2022C59.4091 73.6958 58.5792 72.9499 57.9721 72.0347C57.3649 71.1194 57.0004 70.0648 56.9127 68.97Z"
                  fill="#FF87AF"/>
            <path d="M87.8344 71.8015C86.6346 73.0871 85.4004 74.3126 84.2477 75.6282C83.9011 76.1367 83.6136 76.683 83.3907 77.2566C84.0249 77.4451 84.7662 77.9422 85.2804 77.7665C87.8987 76.888 90.4527 75.8339 93.3281 74.724C92.7024 76.1638 92.231 77.4922 91.5668 78.7092C88.8305 83.3078 85.4038 87.4587 81.4066 91.0164C79.8868 92.4819 78.3084 93.8832 76.6715 95.2201C75.8046 95.9395 74.7622 96.4157 73.6509 96.6001C72.5396 96.7844 71.3992 96.6702 70.3465 96.2692C69.2938 95.8681 68.3665 95.1947 67.6595 94.3176C66.9525 93.4406 66.4912 92.3916 66.3227 91.2778C66.254 90.6585 66.3087 90.0317 66.4838 89.4337C66.6589 88.8357 66.9507 88.2784 67.3426 87.7939C73.174 81.4614 79.8384 75.9503 87.1531 71.4115C87.242 71.3771 87.3363 71.3582 87.4316 71.3558L87.8344 71.8015Z"
                  fill="#FF87AF"/>
            <path d="M97.6724 54.7335L105.004 22.1659L110.147 23.37L107.494 31.4305C105.017 38.9296 102.51 46.4287 100.093 53.9364C99.6221 55.3248 99.0051 55.5819 97.6724 54.7335Z"
                  fill="#FF6196"/>
            <path d="M89.3859 73.8885C90.1615 70.9274 90.9328 68.1892 91.5842 65.421C92.219 62.7364 93.4264 60.2207 95.1238 58.0461C96.1651 56.6791 97.3349 57.2234 98.5305 57.519C99.6361 57.789 99.9146 58.5989 99.9618 59.6616C100.136 62.6005 99.2411 65.5031 97.4421 67.8335C95.3003 70.4887 92.5318 72.5695 89.3859 73.8885Z"
                  fill="#FF6196"/>
            <path d="M119.944 3.83936C120.008 2.88498 119.983 1.92674 119.871 0.976845C119.783 0.711516 119.607 0.483621 119.374 0.329779C119.184 0.175101 118.961 0.0652523 118.723 0.00838844C118.585 -0.0173228 118.393 0.124089 118.208 0.325493C118.03 0.516698 117.878 0.731542 117.758 0.96399C117.65 1.37492 117.627 1.80359 117.69 2.22384V21.3873C112.023 21.7895 106.357 20.6022 101.329 17.9591C99.685 17.2161 98.3781 15.8856 97.6646 14.2286C96.951 12.5717 96.8824 10.7079 97.4722 9.00304C98.1107 6.59046 98.8178 4.19932 99.5462 1.81246C99.7177 1.24253 99.8162 0.655454 99.5462 0.321208C99.3961 0.158494 99.1888 0.0602123 98.9677 0.0469556C98.6847 0.0500088 98.4105 0.146413 98.1878 0.321208C97.8674 0.512888 97.6121 0.796593 97.4551 1.1354C96.598 3.70652 95.8438 6.30336 95.1882 8.9259C94.9407 9.95936 94.874 11.0279 94.9911 12.0841C95.1569 13.9952 95.8676 15.8186 97.0389 17.3377C98.2102 18.8569 99.7928 20.0081 101.599 20.6545C102.409 20.993 102.884 21.3273 102.657 22.3943C102.344 23.7484 102.04 25.1026 101.732 26.461C99.632 35.6656 97.5436 44.8745 95.4667 54.0877C95.4082 54.4985 95.2275 54.8822 94.9482 55.189C93.5793 56.2771 92.4291 57.6148 91.5586 59.1314C90.4493 61.1327 89.6817 63.3052 89.2875 65.5592C89.2118 66.2782 88.952 66.9655 88.5331 67.5548C88.1143 68.144 87.5505 68.6153 86.8963 68.9231C85.1094 69.8273 83.4682 70.9971 81.4841 72.2141C81.6164 69.8282 81.5906 67.4361 81.407 65.0535C81.256 64.3206 81.288 63.5618 81.5003 62.8442C81.7126 62.1267 82.0985 61.4725 82.624 60.9397C85.2375 58.3506 87.1005 55.1015 88.0148 51.538C88.2878 50.712 88.3627 49.8333 88.2333 48.9729C88.104 48.1126 87.774 47.2948 87.27 46.5856C86.7661 45.8764 86.1023 45.2957 85.3325 44.8905C84.5626 44.4853 83.7081 44.267 82.8382 44.2531C81.4298 44.2374 80.047 44.6304 78.8573 45.3844C74.7683 48.1767 70.7504 51.0715 66.8073 54.0663C64.4633 55.8318 62.2564 57.7858 59.9852 59.637C59.8873 59.5319 59.8025 59.4154 59.7324 59.2899C59.689 58.9744 59.604 58.6661 59.4796 58.3729C57.5812 55.4418 58.8968 53.3121 60.958 51.1223C63.1053 48.8714 64.2919 45.8727 64.2661 42.7619C64.3327 41.1769 63.8363 39.6194 62.8649 38.3653C62.3474 37.7286 61.7096 37.2001 60.988 36.8097C59.9629 36.2487 58.7908 36.0145 57.6289 36.1386C56.467 36.2627 55.3708 36.7391 54.4873 37.5039L53.2917 38.361C50.5621 40.315 47.7981 42.2177 45.1713 44.3089C41.3364 47.3705 37.5841 50.5341 33.9183 53.7963C32.2042 55.309 30.953 57.3744 29.1746 58.78C19.9014 66.1034 10.5297 73.294 1.1922 80.5317C0.871132 80.7232 0.575909 80.9551 0.313735 81.2216C0.286745 81.2606 0.263774 81.3023 0.245172 81.3459C0.0480521 81.8044 -0.119071 82.5629 0.112331 82.8414C0.169054 82.9019 0.23761 82.95 0.313735 82.9828C0.721934 83.1523 1.17623 83.175 1.5993 83.0471C2.15985 82.7563 2.67399 82.3837 3.12483 81.9415L29.2646 61.6811C29.7317 61.3168 30.2245 60.9869 30.7944 60.5755C30.9476 62.2831 31.5807 63.9125 32.6206 65.2757C33.6604 66.6388 35.0646 67.68 36.671 68.2791C38.2774 68.8782 40.0204 69.0107 41.6989 68.6614C43.3774 68.312 44.9229 67.4951 46.1569 66.3048C49.1565 63.4166 52.2547 60.6141 55.3101 57.773L56.4242 56.7274C58.2926 60.3827 58.104 61.3468 55.2329 63.648C37.5893 77.7663 19.9585 91.8875 2.34064 106.012C1.59073 106.611 0.108046 107.156 1.08079 108.433C2.05353 109.71 2.94914 108.394 3.69476 107.798C20.2242 94.5972 36.7423 81.3787 53.2489 68.1432C53.6774 67.8003 54.1273 67.4961 54.7487 67.0419V68.4303C54.6647 70.0345 55.0599 71.6275 55.8841 73.0064C56.7082 74.3853 57.924 75.4879 59.3767 76.1736C60.8007 76.897 62.4173 77.1503 63.9942 76.897C65.5711 76.6436 67.0271 75.8968 68.1528 74.7638C71.551 71.7642 74.9149 68.7045 78.2959 65.6792C78.5102 65.4863 78.7587 65.3406 79.153 65.0407C79.6367 67.9861 79.542 70.9975 78.8744 73.9068C78.7096 74.2936 78.4394 74.6262 78.0945 74.8667C75.3005 77.2807 72.4966 79.6847 69.6826 82.0787L28.4075 117.115C27.9243 117.437 27.4972 117.836 27.1434 118.297C27.0305 118.507 26.9672 118.741 26.9582 118.979C26.9493 119.217 26.9951 119.455 27.092 119.673C27.2856 119.818 27.5094 119.917 27.7468 119.964C27.9842 120.011 28.2291 120.004 28.4633 119.943C28.648 119.889 28.8181 119.794 28.9603 119.664C29.1746 119.493 29.3889 119.274 29.5817 119.099L59.4196 93.8158C60.8551 92.5988 62.3035 91.399 63.8162 90.1306C63.8928 90.3343 63.9544 90.5434 64.0005 90.7562C64.0861 92.4102 64.6556 94.0027 65.6383 95.3358C66.6211 96.669 67.9737 97.6842 69.5284 98.2553C71.0641 98.9225 72.7662 99.108 74.4096 98.7874C76.053 98.4669 77.5606 97.6552 78.733 96.4598C80.7213 94.6472 82.684 92.8045 84.6552 90.9705C85.9407 89.792 87.1834 88.6093 88.5376 87.3366C88.7898 88.2162 88.9944 89.1089 89.1503 90.0106C89.3473 92.1094 89.0578 94.2253 88.3042 96.1941C87.5506 98.1628 86.3532 99.9313 84.8051 101.362C79.8386 106.71 74.7606 111.942 69.7255 117.217C69.3955 117.56 68.9413 117.843 68.7613 118.25C68.5813 118.657 68.4657 119.454 68.6799 119.626L68.7399 119.664C69.1892 119.883 69.6945 119.959 70.1883 119.883C70.3267 119.854 70.45 119.777 70.5354 119.664C70.6554 119.54 70.7711 119.386 70.8868 119.27C74.9663 115.053 79.0672 110.858 83.1168 106.611C84.7513 104.955 86.288 103.205 87.7191 101.371C89.5851 99.3049 90.8224 96.7492 91.2855 94.0042C91.7486 91.2591 91.4181 88.439 90.3331 85.8754C90.2164 85.3037 90.3304 84.7092 90.6502 84.2213C90.9287 83.7413 91.2372 83.2742 91.5543 82.8114C92.569 81.494 93.4141 80.0544 94.0698 78.5262C95.3368 74.7758 97.2817 71.2898 99.8076 68.2417C100.969 66.7695 101.768 65.0448 102.14 63.207C102.512 61.3692 102.447 59.4696 101.95 57.6616C101.775 56.9741 101.775 56.2535 101.95 55.5661C104.119 48.8512 106.351 42.1577 108.562 35.4599L111.519 26.4867L112.432 23.7142C114.377 23.7142 116.211 23.6756 118.037 23.7142C119.554 23.757 120.017 23.0457 120 21.5715C119.91 15.658 119.944 9.74866 119.944 3.83936ZM43.9371 65.1435C42.9791 66.0304 41.7647 66.591 40.4683 66.745C39.1719 66.8989 37.86 66.6383 36.7208 66.0006C35.587 65.5162 34.631 64.6925 33.9842 63.6429C33.3373 62.5932 33.0314 61.369 33.1084 60.1384C33.2457 58.6271 33.8732 57.202 34.8953 56.0803C41.5388 49.7455 48.7368 44.019 56.4028 38.9695C56.8212 38.6737 57.2972 38.4693 57.7998 38.3696C58.1369 38.3074 58.4825 38.3074 58.8196 38.3696C59.2234 38.4482 59.6086 38.6023 59.9552 38.8238C60.656 39.2588 61.2224 39.8796 61.5916 40.6171C61.9607 41.3547 62.1182 42.1802 62.0464 43.0019C61.9576 45.1413 61.2092 47.2009 59.9038 48.8983C55.237 54.9207 49.878 60.3733 43.9371 65.1435ZM66.2202 73.4097C65.4752 74.1758 64.4966 74.6724 63.4385 74.8213C62.3803 74.9703 61.3027 74.7631 60.3752 74.2324C59.3988 73.7249 58.5678 72.977 57.9605 72.0593C57.3533 71.1416 56.9897 70.0844 56.9042 68.9874C56.8047 68.0401 56.9263 67.0828 57.2594 66.1905C57.5925 65.2982 58.1281 64.4954 58.8239 63.8451C65.3288 57.8454 72.3078 52.3811 79.6929 47.5056C79.9157 47.3642 80.1214 47.2228 80.3657 47.0771C81.0107 46.6114 81.7923 46.3734 82.5875 46.4005C83.3826 46.4277 84.1462 46.7185 84.758 47.2271C85.35 47.7285 85.7688 48.4038 85.955 49.157C86.1412 49.9101 86.0852 50.7028 85.795 51.4223C84.8607 54.5342 83.1364 57.351 80.7899 59.5985C76.0633 64.3208 71.1482 68.8674 66.2288 73.3925L66.2202 73.4097ZM91.5501 78.7276C88.8175 83.319 85.3967 87.4638 81.407 91.0176C79.8872 92.4831 78.3088 93.8844 76.6718 95.2214C75.8049 95.9408 74.7625 96.417 73.6512 96.6013C72.5399 96.7856 71.3996 96.6714 70.3469 96.2704C69.2942 95.8694 68.3669 95.1959 67.6599 94.3189C66.9529 93.4419 66.4915 92.3928 66.323 91.279C66.2543 90.6597 66.3091 90.0329 66.4842 89.435C66.6592 88.837 66.9511 88.2796 67.3429 87.7951C73.1743 81.4627 79.8387 75.9515 87.1534 71.4128C87.2424 71.3783 87.3366 71.3594 87.432 71.3571L87.8605 71.7856C86.6606 73.0712 85.4265 74.2967 84.2738 75.6123C83.9272 76.1208 83.6396 76.6671 83.4167 77.2407C84.0509 77.4292 84.7923 77.9263 85.3065 77.7506C87.3763 77.0564 89.4117 76.2508 91.5929 75.3937L93.3541 74.7081C92.6942 76.1651 92.2228 77.4935 91.5586 78.7105L91.5501 78.7276ZM97.4336 67.8646C95.8352 69.8996 93.8317 71.5806 91.5501 72.8012C90.8444 73.1954 90.1202 73.564 89.3775 73.9068C90.1402 70.9885 90.903 68.2846 91.5501 65.5506L91.5758 65.4392C92.2106 62.7546 93.418 60.2389 95.1153 58.0644C96.1566 56.6974 97.3265 57.2416 98.5221 57.5373C99.6277 57.8073 99.9062 58.6172 99.9533 59.6799C100.129 62.6162 99.2372 65.5171 97.4422 67.8475L97.4336 67.8646ZM107.461 31.4404C104.984 38.9395 102.477 46.4386 100.06 53.9463C99.6062 55.3561 98.9892 55.6132 97.6565 54.7648L104.011 26.5124L104.988 22.1758L110.131 23.3799L109.098 26.5124L107.461 31.4404Z"
                  fill="black"/>
        </g>
        <defs>
            <clipPath id="clip0_1_3263">
                <rect width="120" height="120" fill="white"/>
            </clipPath>
        </defs>
    </g>
    <g id="typescript">
        <path d="M0 60V120H60H120V60V0H60H0V60Z" fill="#007ACC"/>
        <path d="M26.5374 60.3979L26.4993 65.3122H34.3088H42.1184L42.1184 87.5026V109.693H47.6422H53.166V87.5026L53.166 65.3122H60.9755H68.785V60.4931C68.785 57.8264 68.7279 55.5979 68.6517 55.5407C68.5946 55.4645 59.0898 55.4264 47.566 55.4455L26.5946 55.5026L26.5374 60.3979Z"
              fill="white"/>
        <path d="M96.8264 55.3636C99.874 56.1255 102.198 57.4779 104.331 59.6874C105.436 60.8684 107.074 63.0208 107.207 63.535C107.245 63.6874 102.026 67.1922 98.8644 69.1541C98.7502 69.2303 98.293 68.7351 97.7787 67.9731C96.2359 65.7255 94.6168 64.7541 92.1406 64.5827C88.5025 64.335 86.1597 66.2398 86.1787 69.4208C86.1787 70.3541 86.3121 70.9065 86.693 71.6684C87.493 73.3255 88.9787 74.316 93.6454 76.3351C102.236 80.0303 105.912 82.4684 108.198 85.935C110.75 89.8017 111.322 95.9731 109.588 100.564C107.683 105.554 102.96 108.945 96.3121 110.068C94.2549 110.43 89.3787 110.373 87.1692 109.973C82.3502 109.116 77.7787 106.735 74.9597 103.611C73.8549 102.392 71.7025 99.2112 71.8359 98.9827C71.893 98.9065 72.3883 98.6017 72.9406 98.2779C73.474 97.9731 75.493 96.8112 77.3978 95.7065L80.8454 93.7065L81.5692 94.7731C82.5787 96.316 84.7883 98.4303 86.1216 99.135C89.9502 101.154 95.2073 100.868 97.7978 98.5446C98.9025 97.535 99.3597 96.4874 99.3597 94.9446C99.3597 93.5541 99.1883 92.9446 98.4644 91.897C97.5311 90.5636 95.6263 89.4398 90.2168 87.097C84.0263 84.4303 81.3597 82.7731 78.9216 80.1446C77.5121 78.6208 76.1787 76.1827 75.6264 74.1446C75.1692 72.4493 75.0549 68.2017 75.4168 66.4874C76.693 60.5065 81.2073 56.335 87.7216 55.097C89.8359 54.697 94.7502 54.8493 96.8264 55.3636Z"
              fill="white"/>
    </g>

    <!--social-->
    <g id="github">
        <circle cx="18.8683" cy="18.8683" r="0" fill="#1F2626"/>
        <g clip-path="url(#clip0_1_3204)">
            <path fill-rule="evenodd" clip-rule="evenodd"
                  d="M18.8683 0C8.44354 0 0 8.44354 0 18.8682C0 27.2175 5.40104 34.2695 12.9012 36.7695C13.8446 36.9346 14.1984 36.3686 14.1984 35.8733C14.1984 35.4251 14.1748 33.9393 14.1748 32.3591C9.43413 33.2317 8.20769 31.2034 7.83032 30.142C7.61806 29.5996 6.69823 27.925 5.89633 27.4769C5.23594 27.1231 4.29253 26.2505 5.87274 26.2269C7.35862 26.2033 8.41996 27.5948 8.77374 28.1609C10.4719 31.0147 13.1842 30.2128 14.2691 29.7175C14.4342 28.4911 14.9295 27.6656 15.472 27.1939C11.2738 26.7222 6.88691 25.0948 6.88691 17.8777C6.88691 15.8257 7.61806 14.1276 8.82091 12.8068C8.63223 12.3351 7.97184 10.4011 9.00959 7.80674C9.00959 7.80674 10.5898 7.31145 14.1984 9.74073C15.7078 9.3162 17.3116 9.10393 18.9154 9.10393C20.5192 9.10393 22.123 9.3162 23.6325 9.74073C27.241 7.28786 28.8213 7.80674 28.8213 7.80674C29.859 10.4011 29.1986 12.3351 29.0099 12.8068C30.2128 14.1276 30.9439 15.8022 30.9439 17.8777C30.9439 25.1184 26.5335 26.7222 22.3353 27.1939C23.0193 27.7835 23.6089 28.9156 23.6089 30.6845C23.6089 33.2081 23.5853 35.2365 23.5853 35.8733C23.5853 36.3686 23.9391 36.9582 24.8825 36.7695C28.6281 35.5049 31.8829 33.0976 34.1887 29.8863C36.4946 26.6751 37.7354 22.8216 37.7365 18.8682C37.7365 8.44354 29.293 0 18.8683 0Z"
                  fill="url(#paint0_linear_1_3204)"/>
        </g>
        <defs>
            <linearGradient id="paint0_linear_1_3204" x1="0" y1="18.4028" x2="37.7365" y2="18.4028"
                            gradientUnits="userSpaceOnUse">
                <stop stop-color="#00F5A0"/>
                <stop offset="1" stop-color="#00D9F5"/>
            </linearGradient>
            <clipPath id="clip0_1_3204">
                <rect width="37.7365" height="37.7365" fill="white"/>
            </clipPath>
        </defs>
    </g>
    <g id="gmail">
        <circle cx="18.8683" cy="18.8683" r="18.8683" fill="url(#paint0_linear_1_3190)"/>
        <g clip-path="url(#clip0_1_3190)">
            <path d="M30.661 11.4974V26.2383C30.661 27.0748 30.0235 27.7123 29.1869 27.7123H27.7128V14.3343L18.8683 20.6876L10.0238 14.3343V27.7123H8.54977C7.71322 27.7123 7.07568 27.0748 7.07568 26.2383V11.4974C7.07568 11.0788 7.23341 10.7103 7.49801 10.4494C7.63581 10.3115 7.79994 10.2027 7.98062 10.1295C8.1613 10.0563 8.35485 10.0202 8.54977 10.0233H9.04137L18.8683 17.1483L28.6953 10.0233H29.1869C29.6056 10.0233 29.9741 10.1811 30.2387 10.4494C30.5033 10.7103 30.661 11.0788 30.661 11.4974Z"
                  fill="#1F2626"/>
        </g>
        <defs>
            <linearGradient id="paint0_linear_1_3190" x1="0" y1="18.8683" x2="37.7365" y2="18.8683"
                            gradientUnits="userSpaceOnUse">
                <stop stop-color="#00F5A0"/>
                <stop offset="1" stop-color="#00D9F5"/>
            </linearGradient>
            <clipPath id="clip0_1_3190">
                <rect width="23.5853" height="23.5853" fill="white" transform="translate(7.07544 7.07556)"/>
            </clipPath>
        </defs>
    </g>
    <g id="linkedin">
        <ellipse cx="18.8683" cy="18.8683" rx="18.8683" ry="18.8683" fill="url(#paint0_linear_1_3197)"/>
        <path d="M9.57949 28.7053H13.5275V14.0976H9.57949V28.7053ZM11.5535 7.6492C10.2375 7.6492 9.18469 8.70201 9.18469 10.018C9.18469 11.334 10.2375 12.3868 11.5535 12.3868C12.8695 12.3868 13.9223 11.334 13.9223 10.018C13.9223 8.70201 12.8695 7.6492 11.5535 7.6492ZM20.2392 16.3348V14.0976H16.2911V28.7053H20.2392V21.2041C20.2392 16.9929 25.6348 16.7297 25.6348 21.2041V28.7053H29.5828V19.7565C29.5828 12.65 22.0816 12.9132 20.2392 16.3348Z"
              fill="#1F2626"/>
        <defs>
            <linearGradient id="paint0_linear_1_3197" x1="0" y1="18.8683" x2="37.7365" y2="18.8683"
                            gradientUnits="userSpaceOnUse">
                <stop stop-color="#00F5A0"/>
                <stop offset="1" stop-color="#00D9F5"/>
            </linearGradient>
        </defs>
    </g>
    <g id="telegram">
        <circle cx="16" cy="16" r="0" fill="#1F2626"/>
        <path fill-rule="evenodd" clip-rule="evenodd"
              d="M22.122 10.040c0.006-0 0.014-0 0.022-0 0.209 0 0.403 0.065 0.562 0.177l-0.003-0.002c0.116 0.101 0.194 0.243 0.213 0.403l0 0.003c0.020 0.122 0.031 0.262 0.031 0.405 0 0.065-0.002 0.129-0.007 0.193l0-0.009c-0.225 2.369-1.201 8.114-1.697 10.766-0.21 1.123-0.623 1.499-1.023 1.535-0.869 0.081-1.529-0.574-2.371-1.126-1.318-0.865-2.063-1.403-3.342-2.246-1.479-0.973-0.52-1.51 0.322-2.384 0.221-0.23 4.052-3.715 4.127-4.031 0.004-0.019 0.006-0.040 0.006-0.062 0-0.078-0.029-0.149-0.076-0.203l0 0c-0.052-0.034-0.117-0.053-0.185-0.053-0.045 0-0.088 0.009-0.128 0.024l0.002-0.001q-0.198 0.045-6.316 4.174c-0.445 0.351-1.007 0.573-1.619 0.599l-0.006 0c-0.867-0.105-1.654-0.298-2.401-0.573l0.074 0.024c-0.938-0.306-1.683-0.467-1.619-0.985q0.051-0.404 1.114-0.827 6.548-2.853 8.733-3.761c1.607-0.853 3.47-1.555 5.429-2.010l0.157-0.031zM15.93 1.025c-8.302 0.020-15.025 6.755-15.025 15.060 0 8.317 6.742 15.060 15.060 15.060s15.060-6.742 15.060-15.060c0-8.305-6.723-15.040-15.023-15.060h-0.002q-0.035-0-0.070 0z"
              fill="url(#paint0_linear_1_3204)"/>
        <defs>
            <linearGradient id="paint0_linear_1_3204" x1="0" y1="16" x2="32" y2="16" gradientUnits="userSpaceOnUse">
                <stop stop-color="#00F5A0"/>
                <stop offset="1" stop-color="#00D9F5"/>
            </linearGradient>
        </defs>
    </g>
    <g id="logo">
        <path d="M36,3.99H14c-5.51,0-10,4.49-10,10v22c0,5.51,4.49,10,10,10h22c5.51,0,10-4.49,10-10v-22C46,8.48,41.51,3.99,36,3.99z
                 M27,35c-0.55,0-1-0.45-1-1v-4c0-0.55,0.45-1,1-1c3.86,0,7-3.14,7-7c0-3.52-2.61-6.44-6-6.93v2.03c2.28,0.46,4,2.49,4,4.9
                c0,2.76-2.24,5-5,5c-0.55,0-1-0.45-1-1s0.45-1,1-1c1.65,0,3-1.35,3-3c0-1.65-1.35-3-3-3c-0.55,0-1-0.45-1-1v-4c0-0.55,0.45-1,1-1
                c4.96,0,9,4.04,9,9c0,4.62-3.51,8.45-8,8.94v2.02c5.6-0.51,10-5.23,10-10.96c0-6.07-4.93-11-11-11h-3v29c0,0.55-0.45,1-1,1h-4
                c-0.55,0-1-0.45-1-1V11h-2v29c0,0.55-0.45,1-1,1s-1-0.45-1-1V10c0-0.55,0.45-1,1-1h4c0.55,0,1,0.45,1,1v29h2V10c0-0.55,0.45-1,1-1h4
                c7.17,0,13,5.83,13,13C40,29.17,34.17,35,27,35z"/>
    </g>

</svg>