<svg xmlns="http://www.w3.org/2000/svg" width="577" height="433" fill="none" viewBox="0 0 577 433"><path fill="#919b9b" d="M179.303 352.727h253.699c.686 0 .686-1.081 0-1.081H179.303c-.685 0-.685 1.081 0 1.081m260.371-22.419a120.4 120.4 0 0 0 3.137 30.889c.144.685 1.19.397 1.046-.288a118 118 0 0 1-3.065-30.601c-.036-.685-1.118-.685-1.118 0m42.95.829a86 86 0 0 1-1.803 28.655c-.144.685.866.973 1.046.288 2.236-9.479 2.885-19.247 1.839-28.943-.072-.685-1.154-.685-1.082 0"/><path fill="#919b9b" d="M443.244 362.207c12.477 3.172 25.676 2.739 37.902-1.298.649-.216.36-1.262-.289-1.045-12.081 3.965-25.027 4.433-37.325 1.297-.685-.144-.973.901-.288 1.046m-3.066-31.395a100.2 100.2 0 0 0 42.554-.18c.685-.144.397-1.189-.288-1.045-13.812 3.064-28.165 3.1-41.977.18-.685-.144-.974.901-.289 1.045"/><path fill="#919b9b" d="M448.726 331.209c-1.875-4.217-.181-9.371 1.226-13.517 1.442-4.289 3.498-8.362 6.022-12.11l-.865.108c.829.937 1.731 1.586 2.849 2.126.433.181.901-.108.793-.612-.433-1.947-1.19-3.857-.324-5.803.613-1.37 1.478-2.74 2.199-4.037a6 6 0 0 1-.757.18c.757.468 1.515.901 2.272 1.37.505.324.938-.289.757-.757-.757-1.658-1.262-3.316-.216-4.974.613-1.01 1.406-1.911 2.092-2.848a243 243 0 0 1 4.688-6.019 250 250 0 0 1 9.412-11.066l-.865-.108c4.616 6.055 7.537 13.3 8.33 20.87.397 3.64.288 7.389-.361 10.993a39.5 39.5 0 0 1-1.37 5.407c-.108.36-.252.72-.361 1.045-.396 1.009-1.045 1.442-2.091 1.658-.722.144-1.118.036-1.731.504-.289.217-.361.577-.108.866.793.829 1.117.973.829 2.09-.18.721-.613 1.478-.938 2.199a58 58 0 0 1-2.127 4.217 59 59 0 0 1-5.302 8.002c-.432.54.325 1.297.758.757 3.822-4.902 6.852-10.273 9.124-16.04.072-.18 0-.396-.145-.541-.468-.468-.937-.973-1.442-1.441l-.108.865c.829-.577 1.767-.181 2.632-.541.685-.252 1.046-.757 1.335-1.406.793-1.694 1.298-3.64 1.731-5.442a41.2 41.2 0 0 0 .901-12.075c-.613-8.146-3.606-16.04-8.583-22.528-.18-.252-.577-.396-.865-.108a260 260 0 0 0-11.54 13.697c-1.659 2.091-3.426 4.181-4.869 6.452-1.298 2.054-.685 4.001.217 6.091l.757-.757c-.757-.468-1.515-.901-2.272-1.369-.252-.144-.613-.072-.757.18-.902 1.658-2.308 3.496-2.813 5.334-.433 1.622.469 3.749.829 5.335.253-.216.541-.397.794-.613a7.4 7.4 0 0 1-2.633-1.946c-.252-.289-.685-.18-.865.108a52.5 52.5 0 0 0-6.528 13.589c-1.298 4.181-2.56 8.938-.721 13.12.361.648 1.298.108 1.01-.505"/><path fill="#919b9b" d="M478.081 281.432c-1.443 16.328-12.622 29.412-17.274 44.767-.217.685.829.937 1.045.288 4.652-15.463 15.868-28.583 17.31-45.055.073-.721-1.045-.685-1.081 0"/><path fill="#919b9b" d="M464.449 290.118a291 291 0 0 0 4.003 17.662c.18.685 1.226.396 1.046-.288a297 297 0 0 1-4.003-17.662c-.108-.685-1.154-.396-1.046.288m12.189 3.821c3.137-2.271 5.842-4.974 8.186-8.11.433-.541-.505-1.081-.937-.541a36 36 0 0 1-7.79 7.714c-.541.432 0 1.37.541.937m-3.354-15.427c.974 3.1 1.551 6.885 3.931 9.228.505.504 1.262-.289.758-.757-2.2-2.199-2.777-5.911-3.679-8.759-.18-.649-1.226-.36-1.01.288m-26.723 52.409c-2.199-1.731-3.534-4.145-4.652-6.669-1.262-2.955-2.344-5.983-3.317-9.047a106.4 106.4 0 0 1-3.967-18.022c-1.623-12.759-.325-25.663-1.876-38.459-.324.109-.685.181-1.009.289 4.039 9.083 13.487 14.526 21.349 19.932-.072-.252-.145-.504-.181-.757l-3.245 4.65c-.253.36.072.829.469.829 1.406 0 2.632-.18 3.966-.649-.216-.072-.396-.18-.613-.252l4.003 6.163c.036-.216.073-.432.073-.648-.65.612-1.191 1.297-1.732 2.054-.18.252 0 .757.325.793 2.957.433 4.003 3.244 4.76 5.767.217.649 1.262.397 1.046-.288-.901-2.848-2.2-6.056-5.517-6.524.108.252.216.54.324.793.469-.721.938-1.226 1.551-1.803a.496.496 0 0 0 .072-.648l-4.003-6.164c-.108-.18-.361-.324-.613-.252-1.226.396-2.416.613-3.678.577.144.288.324.54.468.829l3.246-4.65c.18-.252.036-.577-.18-.757-7.718-5.298-16.986-10.597-20.953-19.536-.216-.468-1.082-.252-1.009.288 1.586 13.265.18 26.673 2.055 39.901.902 6.38 2.38 12.652 4.436 18.743 1.659 4.938 3.39 10.957 7.609 14.31.577.396 1.334-.361.793-.793"/><path fill="#919b9b" d="M431.957 259.806c2.921 8.074 5.373 16.58 9.304 24.258 1.947 3.784 4.075 7.497 5.914 11.353 1.983 4.181 3.75 8.435 5.554 12.652.252.649 1.19.072.937-.541-1.695-4.037-3.426-8.074-5.265-12.039-1.803-3.892-3.895-7.605-5.914-11.389-4.039-7.714-6.528-16.364-9.521-24.546-.216-.685-1.262-.397-1.009.252"/><path fill="#919b9b" d="M433.327 287.199c3.895.468 8.15.685 11.107 3.604.505.505 1.262-.288.757-.757-3.173-3.099-7.681-3.388-11.864-3.892-.685-.109-.685.973 0 1.045m10.422-14.598a37 37 0 0 0-1.262 7.209c-.144 2.091-.397 4.542.324 6.56.217.649 1.263.361 1.046-.288-.685-1.91-.433-4.289-.288-6.308.18-2.343.613-4.649 1.226-6.92.18-.649-.866-.937-1.046-.253m-7.97 34.242c2.813.072 5.518.108 8.259.865 2.704.757 5.373 1.55 8.078 2.343.685.18.973-.865.288-1.045-2.885-.829-5.734-1.731-8.655-2.487-2.632-.685-5.265-.649-7.97-.721-.685-.072-.685 1.009 0 1.045m39.452 23.068a27 27 0 0 1 7.213 0c-.108-.252-.216-.541-.325-.793-.216.325-2.38.361-2.813.397-.973.144-1.983.288-2.957.504-.144.036-1.118.144-1.154.253.072-.181 1.515-.145 1.731-.145 1.046 0 2.092.109 3.138.181v-1.082c-.902-.036-1.695.072-2.597.325-.577.144-.469 1.045.145 1.045 1.406 0 2.668-.288 4.038-.649.686-.18.397-1.225-.288-1.045-1.226.324-2.452.613-3.75.613.036.36.108.72.144 1.045.757-.216 1.514-.288 2.308-.288.685 0 .685-1.046 0-1.082-1.587-.072-3.895-.649-5.338.253-.577.36-1.406 1.297-.649 1.874.325.252.686.108 1.082.072 1.082-.216 2.128-.469 3.21-.649 1.262-.216 3.786.108 4.652-1.081.18-.253 0-.757-.325-.793a27.5 27.5 0 0 0-7.501-.036c-.649.072-.649 1.153.036 1.081m-34.583.685a7.5 7.5 0 0 1 1.514-.288c.253 0 .469-.036.721 0 .109 0 .613-.036.65 0-.037-.181-.109-.361-.145-.541 0 .036-.036.072-.036.072.217-.108.433-.252.649-.36h-.072l.361.36c0-.036 0-.072-.036-.072-.181-.685-1.19-.397-1.046.288 0 .036 0 .072.036.072.036.181.216.325.361.361h.072c.288.072.541-.072.649-.361 0-.036.036-.072.036-.072.072-.18 0-.396-.144-.54-.397-.397-1.262-.325-1.767-.325-.722 0-1.479.144-2.164.325-.577.216-.289 1.261.361 1.081m.829 7.245c13.163 2.271 26.83 3.352 39.813-.541.649-.216.396-1.225-.289-1.045-12.766 3.821-26.253 2.775-39.236.541-.685-.109-.973.937-.288 1.045m45.331 14.814h69.384c.685 0 .685-1.081 0-1.081h-69.384c-.721 0-.721 1.081 0 1.081m-17.491 23.176h65.382c.685 0 .685-1.081 0-1.081h-65.382c-.685 0-.685 1.081 0 1.081"/><path fill="#919b9b" d="M479.234 375.723c-2.596 2.163-5.193 4.289-7.753 6.452-.541.432.216 1.189.757.757 2.597-2.163 5.193-4.289 7.754-6.452.541-.433-.253-1.226-.758-.757"/><path fill="#919b9b" d="M471.805 383.328c.686 0 .686-1.081 0-1.081-.685 0-.685 1.081 0 1.081"/><path fill="#919b9b" d="M482.805 382.247h-65.887c-.685 0-.685 1.081 0 1.081h65.887c.685 0 .685-1.081 0-1.081"/><path fill="#919b9b" d="M416.81 393.421a233 233 0 0 1 12.009-9.336c.541-.396.036-1.333-.541-.937a241 241 0 0 0-12.225 9.48c-.541.468.216 1.225.757.793m-328.313-19.68h98.018c.685 0 .685-1.082 0-1.082H88.497c-.685 0-.685 1.082 0 1.082"/><path fill="#919b9b" d="M101.805 383.148c3.426-2.919 6.888-5.839 10.314-8.758.54-.469-.253-1.226-.758-.757-3.426 2.919-6.888 5.839-10.314 8.759-.541.432.253 1.225.758.756"/><path fill="#919b9b" d="M89.399 384.194h70.971c.685 0 .685-1.082 0-1.082H89.399c-.686 0-.686 1.082 0 1.082"/><path fill="#919b9b" d="M152.112 383.977c-2.705 3.028-5.482 5.984-8.295 8.939-.469.505.289 1.262.758.757a487 487 0 0 0 8.294-8.939c.505-.504-.289-1.261-.757-.757"/><path fill="#919b9b" d="M133.648 394.647h62.388c.685 0 .685-1.082 0-1.082h-62.388c-.686 0-.686 1.082 0 1.082m-14.75-39.036h26.434c.685 0 .685-1.082 0-1.082h-26.434c-.685 0-.685 1.082 0 1.082m33.105 3.532h8.15c.686 0 .686-1.081 0-1.081h-8.15c-.721 0-.721 1.081 0 1.081m-19.582-192.728v17.662c0 .685 1.082.685 1.082 0v-17.662c0-.684-1.082-.684-1.082 0"/><path fill="#919b9b" d="M114.282 184.942h43.492c.685 0 .685-1.081 0-1.081h-43.492c-.685 0-.685 1.081 0 1.081"/><path fill="#919b9b" d="M144.646 185.447v13.589c0 .684 1.082.684 1.082 0v-13.589c0-.721-1.082-.721-1.082 0m-12.008 15.462h34.656c.685 0 .685-1.081 0-1.081h-34.656c-.721 0-.721 1.081 0 1.081m291.024-47.145v4.289c0 .685 1.082.685 1.082 0v-4.289c0-.685-1.082-.685-1.082 0"/><path fill="#919b9b" d="M424.528 154.629h74.433c.685 0 .685-1.081 0-1.081h-74.433c-.686 0-.686 1.081 0 1.081m.649 3.965h73.748c.685 0 .685-1.081 0-1.081h-73.748c-.685 0-.685 1.081 0 1.081"/><path fill="#919b9b" d="M498.78 153.764a16.6 16.6 0 0 0 .181 4.434c.108.684 1.154.396 1.045-.289a14.6 14.6 0 0 1-.144-4.145c.072-.685-1.01-.685-1.082 0m-69.168.036v-30.169c0-.685-1.081-.685-1.081 0V153.8c0 .721 1.081.721 1.081 0"/><path fill="#919b9b" d="M429.612 123.811c3.066-1.225 6.311-1.045 9.16.649.613.361 1.154-.577.541-.937-3.065-1.802-6.707-2.091-9.989-.757-.649.252-.361 1.298.288 1.045"/><path fill="#919b9b" d="M438.592 124.208v29.015c0 .685 1.082.685 1.082 0v-29.015c0-.685-1.082-.685-1.082 0"/><path fill="#919b9b" d="M439.818 132.282c2.2-.901 4.508-.757 6.564.505.613.36 1.154-.577.541-.938-2.272-1.369-4.941-1.622-7.393-.612-.649.252-.361 1.297.288 1.045"/><path fill="#919b9b" d="M446.165 132.75v20.293c0 .685 1.082.685 1.082 0V132.75c0-.684-1.082-.684-1.082 0m-16.408-.648c3.065-.685 6.094-.469 9.051.576.65.217.938-.829.289-1.045-3.138-1.117-6.383-1.262-9.629-.577-.649.144-.36 1.19.289 1.046"/><path fill="#919b9b" d="M439.061 144.609c2.308-.613 4.616-.685 6.96-.18.685.144.974-.902.289-1.046-2.525-.54-5.013-.504-7.538.181-.649.18-.396 1.225.289 1.045m20.735 8.831v-6.056c0-.685-1.081-.685-1.081 0v6.056c0 .684 1.081.684 1.081 0"/><path fill="#919b9b" d="M459.256 147.709h35.124c.686 0 .686-1.082 0-1.082h-35.124c-.722 0-.722 1.082 0 1.082"/><path fill="#919b9b" d="M494.742 148.285c.685 0 .685-1.081 0-1.081-.722 0-.722 1.081 0 1.081"/><path fill="#919b9b" d="M494.201 147.745v5.514c0 .685 1.082.685 1.082 0v-5.514c0-.685-1.082-.685-1.082 0m-27.588-.757v-5.695c0-.685-1.082-.685-1.082 0v5.695c0 .685 1.082.685 1.082 0"/><path fill="#919b9b" d="M466.072 141.653h34.547c.686 0 .686-1.081 0-1.081h-34.547c-.686 0-.686 1.081 0 1.081"/><path fill="#919b9b" d="M500.259 141.112v4.758c0 .685 1.082.685 1.082 0v-4.758c0-.72-1.082-.72-1.082 0m-6.275 6.777h6.275c.685 0 .685-1.081 0-1.081h-6.275c-.721 0-.721 1.081 0 1.081"/><path fill="#919b9b" d="M500.187 145.907c-.072.396-.072.757.036 1.117.072.288.397.469.649.36.289-.072.469-.396.361-.648-.036-.181-.072-.397-.036-.541.036-.288-.072-.613-.361-.649-.252-.072-.613.072-.649.361m-25.893-4.542q.703 2.757.324 5.623c-.072.685 1.01.685 1.082 0 .253-1.983.108-3.965-.36-5.911-.181-.649-1.227-.361-1.046.288m8.15 6.271c.253 1.803.108 3.569-.324 5.299-.181.685.865.973 1.046.288.504-1.946.613-3.892.324-5.875-.072-.685-1.118-.396-1.046.288m-7.068 43.866v8.506c0 .685 1.082.685 1.082 0v-8.506c0-.721-1.082-.721-1.082 0"/><path fill="#919b9b" d="M467.009 200.153h21.638c.685 0 .685-1.082 0-1.082h-21.638c-.685 0-.685 1.082 0 1.082M454.712 78.9v19.5c0 .685 1.082.685 1.082 0V78.9c0-.684-1.082-.684-1.082 0"/><path fill="#919b9b" d="M456.082 78.865h24.631c.685 0 .685-1.082 0-1.082h-24.631c-.685 0-.685 1.082 0 1.082"/><path fill="#919b9b" d="M480.749 78.72V97.5c0 .684 1.082.684 1.082 0V78.72c0-.685-1.082-.685-1.082 0"/><path fill="#919b9b" d="M455.109 99.013h26.181c.685 0 .685-1.081 0-1.081h-26.181c-.685 0-.685 1.081 0 1.081m2.019-17.878v14.778c0 .685 1.082.685 1.082 0V81.135c0-.685-1.082-.685-1.082 0"/><path fill="#919b9b" d="M457.922 81.568h20.267c.685 0 .685-1.082 0-1.082h-20.267c-.686 0-.686 1.082 0 1.082"/><path fill="#919b9b" d="M477.792 81.135v13.697c0 .685 1.082.685 1.082 0V81.135c0-.685-1.082-.685-1.082 0"/><path fill="#919b9b" d="M457.922 96.454h20.159c.685 0 .685-1.081 0-1.081h-20.159c-.686 0-.686 1.08 0 1.08m12.766-6.487c-2.849-2.163 1.406-6.668 3.39-3.965 1.839 2.451-1.154 5.407-3.715 4.037-.613-.324-1.154.613-.541.937 1.659.901 3.859.649 5.049-.901 1.226-1.55 1.082-4-.469-5.299-1.623-1.333-3.931-.432-5.049 1.082-1.19 1.658-.829 3.82.794 5.046.577.396 1.082-.54.541-.937"/><path fill="#919b9b" d="M467.262 95.3c-.145-2.847 3.353-3.928 5.553-3.928 2.705 0 3.57 2.415 4.688 4.47.325.612 1.262.071.938-.541-.757-1.37-1.479-3.172-2.741-4.182-1.154-.9-2.596-.865-3.967-.72-2.524.288-5.734 1.838-5.553 4.901.036.685 1.118.685 1.082 0"/><path fill="#919b9b" d="M458.391 92.706c.793-1.478 3.714-.902 4.796-.325 1.118.613 1.767 1.622 2.055 2.847.145.685 1.19.397 1.046-.288-.433-1.874-1.731-3.352-3.606-3.965-1.587-.504-4.291-.54-5.193 1.154-.361.648.577 1.19.902.576"/><path fill="#919b9b" d="M460.482 90.038c-1.19-.036-.901-1.802-.397-2.415.65-.793 1.948-.901 2.705-.144.613.577.793 1.658.289 2.343-.361.504-.902.612-1.479.612-.216 0-1.118.037-1.262-.144-.397-.576-1.334-.036-.938.541.433.649 1.335.685 2.056.685.865.036 1.695-.18 2.308-.83 1.154-1.26.757-3.387-.613-4.324-1.479-.974-3.534-.433-4.292 1.153-.649 1.406-.18 3.532 1.623 3.568.721.072.721-1.009 0-1.045m-220.703 84.667c1.695 1.37 3.787.793 5.374-.541 2.235-1.838 3.353-4.974 3.786-7.749 1.118-7.065-1.731-13.769-2.849-20.617-2.019-12.724 3.534-26.348 13.848-33.99 5.013-3.748 13.271-7.749 11.324-15.427-.18-.684-1.226-.396-1.046.289 1.839 7.317-6.672 11.029-11.324 14.561-4.183 3.208-7.573 7.353-9.989 12.003a37.6 37.6 0 0 0-4.219 14.598c-.469 6.163 1.154 11.894 2.488 17.842.793 3.604 1.298 7.389.613 11.065-.324 1.694-.901 3.352-1.803 4.83-1.01 1.586-3.426 4.037-5.445 2.415-.505-.468-1.299.288-.758.721"/><path fill="#919b9b" d="M270.865 95.95c-4.075.18-7.645-2.993-7.428-7.174.216-4.361 5.373-8.398 9.736-7.245 3.895 1.046 6.888 5.335 5.915 9.336-.974 4-5.482 4.866-8.944 5.442-.685.109-.397 1.154.289 1.046 4.471-.721 9.664-2.307 9.953-7.714.216-4.397-3.715-9.155-8.222-9.335-4.761-.216-9.557 3.676-9.809 8.506-.217 4.758 3.858 8.435 8.51 8.254.686-.072.686-1.153 0-1.117"/><path fill="#919b9b" d="M265.528 93.137c1.731-4.361 10.963-5.082 12.045.109.144.684 1.19.396 1.046-.289-1.334-6.344-12.045-5.406-14.137-.108-.252.649.794.901 1.046.288"/><path fill="#919b9b" d="M270.937 88.272c-.757-.541-1.046-1.586-.541-2.38.577-.972 1.803-1.08 2.741-.576.721.396.865 1.297.433 1.982-.541.83-1.695.938-2.597.721-.685-.144-.973.901-.288 1.045 1.442.325 3.173 0 3.894-1.405.65-1.262.181-2.776-1.117-3.388-1.443-.65-3.174-.36-4.003 1.045-.83 1.334-.289 2.992.937 3.857.577.468 1.118-.469.541-.901m15.291-11.102c3.786-10.02 14.677-15.138 24.811-15.823 6.707-.469 13.415.576 19.978 1.838 6.203 1.225 12.658 3.172 19.005 2.956 5.229-.18 10.603-2.343 13.055-7.21.325-.612-.613-1.153-.938-.54-2.848 5.623-9.412 7.065-15.218 6.596-6.78-.54-13.451-2.559-20.123-3.676-10.819-1.803-22.359-2.055-31.987 4.037-4.364 2.775-7.826 6.668-9.665 11.534-.216.648.829.937 1.082.288m81.212-18.85h28.598c.685 0 .685-1.082 0-1.082H367.44c-.721 0-.721 1.081 0 1.081"/><path fill="#919b9b" d="M367.044 57.166c-1.695-1.658.144-4.47 1.479-5.731 1.623-1.586 3.858-2.199 6.022-1.334.181.072.541-.036.613-.252 1.299-3.028 4.364-5.227 7.718-5.082 3.498.144 6.455 2.775 7.32 6.091.072.324.505.505.794.324 1.586-.973 3.209.18 3.858 1.658.577 1.37.433 2.92.289 4.398-.072.685 1.01.685 1.082 0 .216-2.163.36-4.722-1.371-6.38-1.226-1.153-2.921-1.514-4.363-.613.252.108.541.217.793.325-.973-3.605-4.075-6.488-7.861-6.849-3.895-.396-7.646 2.019-9.16 5.587.216-.072.396-.18.613-.252-2.885-1.154-5.914.072-7.79 2.45-1.406 1.767-2.632 4.614-.721 6.453.433.468 1.19-.289.685-.793m20.519 5.298c4.436-.505 7.033 4.145 7.718 7.894.721 3.856.036 7.713-.361 11.57-.613 5.803-.216 12.796 5.301 16.184.577.36 1.154-.577.541-.937-7.537-4.614-4.399-14.887-4.111-21.951.217-5.37-1.911-14.634-9.088-13.841-.685.072-.685 1.153 0 1.081m18.645 29.556c-3.246 8.182-6.455 16.364-9.701 24.51-.252.649.794.937 1.046.288 3.246-8.182 6.455-16.364 9.701-24.51.252-.648-.793-.9-1.046-.288"/><path fill="#919b9b" d="M406.713 92.705c5.626-.288 11.215-.144 16.805.505a8 8 0 0 1-.505-.685c-2.668 8.542-4.832 17.193-6.563 25.951-.144.685.901.974 1.046.289a258 258 0 0 1 6.563-25.952c.108-.36-.18-.649-.505-.685-5.589-.649-11.179-.793-16.805-.504-.721.036-.721 1.117-.036 1.08"/><path fill="#919b9b" d="M396.759 117.576c3.318.144 6.6.324 9.918.54 3.209.18 6.635.108 9.664 1.334.649.252.938-.793.289-1.045-2.885-1.19-6.167-1.118-9.232-1.298-3.534-.216-7.068-.396-10.639-.577-.685-.072-.685 1.01 0 1.046m10.458-21.266c3.462.071 6.925.324 10.35.792.686.108.974-.937.289-1.045a88 88 0 0 0-10.639-.865c-.721 0-.721 1.081 0 1.117m-1.045 2.451a45 45 0 0 1 5.842.145c.685.072.685-1.01 0-1.082-1.947-.18-3.895-.252-5.842-.144-.685.036-.685 1.118 0 1.082m-2.38 4.865c4.147-.252 8.078-.613 12.153.397.685.18.973-.865.288-1.046-4.183-1.009-8.186-.685-12.441-.432-.722.036-.722 1.117 0 1.081m.18 3.172c2.38-.18 4.76-.18 7.14.036.686.072.686-1.009 0-1.081a43 43 0 0 0-7.14-.036c-.685.072-.721 1.153 0 1.081m-1.875 4.182a47.7 47.7 0 0 1 9.628.324c.686.108.686-.973 0-1.081a48 48 0 0 0-9.628-.325c-.686.036-.686 1.118 0 1.082M222.65 62.608c1.442 1.947 3.534 2.74 5.662 3.713 2.524 1.153 4.832 2.703 6.707 4.758 4.256 4.577 5.662 10.74 5.77 16.832.253 11.426-3.606 23.393 1.587 34.206.288.613 1.226.072.938-.541-5.446-11.39-.613-24.15-1.551-36.116-.397-5.19-1.875-10.272-5.229-14.31-1.587-1.91-3.534-3.568-5.698-4.793-2.416-1.37-5.554-1.983-7.249-4.29-.396-.54-1.334 0-.937.541m-12.334-15.247q-1.406-1.784.217-2.487a5.2 5.2 0 0 1 1.478-.54c.685-.145 1.443-.18 2.164-.145 2.164.109 4.363.685 4.255 3.316-.108 3.1-.685 6.164-1.442 9.156-.794 3.063-1.767 6.055-2.813 9.047-.217.648-.397 1.406-.721 2.018-.65 1.118-1.659 1.082-2.741 1.082-1.334 0-3.029.18-4.328-.18-1.442-.397-1.767-1.839-.36-2.776.649-.433 1.55-.505 2.308-.505.973 0 1.839.217 2.668-.432 1.587-1.226 1.84-4.542 2.2-6.308.541-2.559 1.443-5.695 1.262-8.29-.144-1.983-2.091-2.055-3.498-2.884-.613-.36-1.154.577-.541.938 1.118.648 2.741.72 2.957 2.198.253 1.73-.468 4.073-.793 5.803a75 75 0 0 1-1.118 4.938c-.324 1.226-.469 2.704-2.091 3.028-.65.144-1.443-.072-2.128.036-1.731.252-3.426 1.478-3.174 3.424.325 2.451 3.246 2.019 5.049 2.09 2.236.073 4.472.397 5.482-1.982 1.262-2.955 2.163-6.2 3.029-9.263.901-3.172 1.587-6.452 1.839-9.732.216-2.559.325-4.613-2.524-5.298-2.489-.613-5.915-.901-7.862 1.117-1.298 1.334-.974 3.965 1.262 3.785.649-.144.649-1.226-.036-1.154m-4.363 3.857-.108-.108c-.145-.144-.361-.18-.541-.144-1.046.36-1.443 2.055-1.731 2.992-.505 1.73-.613 3.496-.361 5.298.072.685 1.154.685 1.082 0-.144-1.261-.18-2.487.036-3.748.108-.65 1.226-3.172.829-3.533.505.505 1.263-.252.794-.757m-3.643-3.965c-3.317 4.218-5.445 9.3-4.039 14.706.181.685 1.227.397 1.046-.288-1.298-4.974.721-9.768 3.751-13.66.432-.541-.325-1.298-.758-.758m-4.543-4.865c-5.518 7.244-8.114 16.4-7.177 25.483.072.684 1.154.684 1.082 0a35.22 35.22 0 0 1 7.032-24.943c.397-.54-.541-1.081-.937-.54m-7.682 36.836c-2.777 1.334-5.373 3.172-7.429 5.48-2.091 2.378-2.74 4.937-3.065 8.037-.721 7.1-3.354 14.886-10.494 17.878-.649.252-.361 1.297.288 1.045 5.698-2.379 9.016-7.785 10.422-13.625.83-3.496.433-7.64 2.272-10.777 1.876-3.208 5.265-5.55 8.547-7.136.649-.253.108-1.19-.541-.902m-36.243 50.534c-2.38.072-5.084-.937-5.95-3.388-1.01-2.883 1.154-5.695 3.462-7.173 4.472-2.883 10.494-4.001 15.687-4.073 2.633-.036 5.626 0 7.934 1.406 2.957 1.802 3.462 5.19 1.154 7.75-3.498 3.892-9.52 4.289-14.353 4.649-.685.036-.685 1.118 0 1.082 4.833-.361 10.242-.793 14.137-4.037 3.57-2.956 3.822-7.858-.361-10.417-4.327-2.631-10.927-1.766-15.615-.757-4.508.973-10.674 2.739-12.694 7.389-2.092 4.758 1.911 8.723 6.672 8.579.649.036.649-1.046-.073-1.01"/><path fill="#919b9b" d="M153.662 130.191c-.901 1.441-1.767 2.883-2.668 4.289-.289.468.288.973.757.757 2.2-1.19 4.58-1.947 6.816-2.992a28.4 28.4 0 0 0 3.57-1.91c.397-.252.865-.397.974-.901.072-.253-.072-.613-.361-.649-.036 0-.072 0-.108-.036-.253-.036-.613.072-.649.36v.072c-.145.685.901.974 1.046.289v-.072c-.217.108-.433.252-.65.36.036 0 .073 0 .109.036-.109-.216-.253-.432-.361-.649-.108.361-2.128 1.19-2.56 1.442-1.082.577-2.2 1.045-3.354 1.514-1.695.685-3.354 1.334-4.941 2.199l.757.757c.902-1.442 1.768-2.884 2.669-4.29.253-.612-.685-1.153-1.046-.576m1.19-6.235c-.036-.073-.036-.217.072-.217.289 0-.036.361-.072.397-.18.108-.793.252-.757-.108.036-.433.865-.901 1.009-.253.036.181-.108.397-.288.433-.108.036-.18.036-.253-.036-.036-.036-.108-.072-.036-.072.686.036.686-1.046 0-1.082-.721-.072-1.262.685-1.081 1.37.18.685.973 1.045 1.622.865s1.154-.757 1.154-1.442-.541-1.261-1.154-1.405c-1.334-.325-2.74 1.622-1.586 2.595.937.793 2.812.072 2.704-1.262-.072-.721-.865-1.297-1.586-1.045s-1.01 1.153-.65 1.802c.289.613 1.227.072.902-.54m7.97-.974c-.036-.216-.144-.505.072-.685.108-.108.289-.108.433-.108.361.072.288.469.036.649-.144.108-.289.108-.397-.036s-.072-.18.036-.253c.072-.036-.144 0 .036-.036.433-.072-.288.433-.18.073-.216.684.83.937 1.046.288.18-.649-.433-1.298-1.082-1.19-.757.145-.938 1.046-.469 1.586.433.505 1.226.397 1.551-.18s.108-1.333-.541-1.55c-.649-.216-1.37.18-1.515.829-.18.721.325 1.442 1.046 1.622 1.298.289 2.38-1.478 1.443-2.451-.469-.468-1.226-.504-1.803-.252-.794.396-.83 1.225-.686 1.982.036.685 1.082.397.974-.288m8.006-2.415c.144 0 .288.036.469.036v-.036c.036-.036.036-.108.072-.144.036-.072.144-.144.216-.18.181-.073.361-.073.469.108.144.288-.108.829-.469.612-.216-.144-.252-.504.072-.432.072 0 .109.036.145.072 0 0 0 .072 0 0s0 .036-.036.036c-.109.072-.145.144-.253.072-.252-.18-.613-.036-.757.18-.144.289-.036.577.18.757 1.046.757 2.452-.757 1.623-1.766-.757-.901-2.38-.324-2.308.865a1.46 1.46 0 0 0 1.082 1.298c.577.144 1.19-.144 1.514-.649.722-1.117-.288-2.667-1.622-2.235-.613.216-1.154.829-1.082 1.514.072.757 1.154 1.153 1.55.397.361-.577-.541-1.118-.865-.505m21.781-31.43c4.436-2.451 8.295-5.695 11.504-9.624.433-.54-.324-1.298-.757-.757a38.5 38.5 0 0 1-11.287 9.443c-.614.325-.073 1.262.54.938m53.95.937c-.794 4.541-1.118 9.119-.902 13.732.036.685 1.118.685 1.082 0-.216-4.505.072-9.01.866-13.444.108-.685-.938-.973-1.046-.288m-5.517 105.356a17.56 17.56 0 0 1 7.032-14.057c.541-.396 0-1.333-.541-.937a18.59 18.59 0 0 0-7.537 14.994c-.036.685 1.046.685 1.046 0"/><path fill="#191919" d="M301.447 340.976a145 145 0 0 0 2.921 17.049 146 146 0 0 0 6.924 21.735c-.685.613-2.741 2.235-5.77 2.451-1.912.144-3.426-.325-4.292-.649a305 305 0 0 1-3.714-14.057 314 314 0 0 1-5.373-28.475q4.705.974 9.304 1.946m80.96-3.388a141 141 0 0 1-2.596 17.049 143.5 143.5 0 0 1-6.888 22.672c.36.324 2.416 2.271 5.589 2.126 2.741-.108 4.508-1.73 4.941-2.126.829-4.361 1.623-8.759 2.416-13.156 1.731-9.624 3.282-19.104 4.76-28.475-2.74.613-5.481 1.262-8.222 1.91m-64.48-14.381a434 434 0 0 0 2.921 17.049 412 412 0 0 0 5.409 24.185 10.5 10.5 0 0 1-4.76 1.478 10.6 10.6 0 0 1-4.291-.649 1672 1672 0 0 1-3.174-15.499c-1.911-9.624-3.678-19.103-5.373-28.475 3.101.613 6.167 1.262 9.268 1.911m50.884-1.082a349 349 0 0 0-2.597 17.049 338 338 0 0 0-2.199 23.357 8.4 8.4 0 0 0 4.111 1.333c2.2.072 3.822-.793 4.435-1.153-.36-4.253-.504-8.975-.288-14.021.433-11.21 2.488-20.87 4.76-28.475-2.741.613-5.481 1.262-8.222 1.91"/><path fill="#fff" stroke="#191919" stroke-miterlimit="10" stroke-width="1.773" d="M432.894 201.522c6.311 11.246 1.443 23.681-10.386 54.571-5.698 14.85-16.12 42.135-30.833 81.027-14.461 5.262-38.407 11.75-68.014 9.696a163 163 0 0 1-42.554-8.723c-1.623-2.92-7.248-13.841-3.029-24.438 2.344-5.875 7.068-10.092 17.093-15.066 9.882-4.902 27.3-11.787 52.616-13.048-9.918-49.344 7.068-89.786 33.502-99.121 17.346-6.092 42.914-.361 51.605 15.102Z"/><path fill="#191919" d="M430.587 205.595c-10.459 13.228-12.839 30.998-16.842 46.893-4.291 17.013-9.232 33.99-16.624 49.957-4.075 8.759-8.872 17.194-14.606 24.979-.396.577.541 1.117.938.541 10.061-13.697 17.166-29.232 22.647-45.236 5.554-16.292 9.232-33.088 13.56-49.704 2.452-9.444 5.589-18.887 11.72-26.637.397-.577-.361-1.334-.793-.793M281.324 330.271c24.053 8.831 50.271 11.426 75.587 7.497a151.5 151.5 0 0 0 21.457-4.938c.649-.216.397-1.261-.289-1.045-24.522 7.569-50.848 8.723-75.947 3.388-6.96-1.478-13.848-3.496-20.52-5.947-.649-.252-.937.793-.288 1.045m84.674-28.33c6.059 1.982 11.216 5.983 14.678 11.39.36.576 1.298.036.937-.541a28.9 28.9 0 0 0-15.326-11.895c-.685-.216-.974.83-.289 1.046m-108.475 46.677c2.885 4.325 5.77 8.686 8.619 13.012-18.464 16.58-20.844 21.302-19.474 22.455 2.741 2.271 22.395-7.822 24.414-8.867a135.6 135.6 0 0 0 16.517-9.984 78 78 0 0 0-5.409-11.678 87 87 0 0 0-9.882-13.949c-4.94 2.955-9.881 5.983-14.785 9.011"/><path fill="#fff" stroke="#191919" stroke-miterlimit="10" stroke-width="1.773" d="M365.421 263.662c1.299 2.812 2.669 6.812 2.885 11.642.325 7.281-2.055 13.084-3.858 16.436a41 41 0 0 1-5.265 5.623s-5.806 5.119-15.038 9.047c-9.413 4.037-36.784 8.903-73.965 9.84 1.082 4.614 3.03 10.273 6.492 16.364a68 68 0 0 0 6.058 8.867c-1.37 1.802-5.265 6.38-13.018 9.263-7.465 2.776-14.317 2.451-17.022 2.235-3.895-3.568-7.898-7.821-11.612-12.904-10.927-15.03-13.487-29.556-13.956-38.891a114 114 0 0 1 11.864-7.461c10.819-5.947 20.736-9.191 28.886-11.606 14.029-4.109 27.444-6.957 58.313-12.183 9.665-1.622 23.044-3.857 39.236-6.272Z"/><path fill="#6c6d6d" d="M331.163 269.862c-1.046 6.884-4.003 15.823-13.163 21.374-8.908 5.406-16.373 3.208-34.224 7.533-12.838 3.1-29.823 7.209-34.547 16.328-4.941 9.588 4.399 23.104 20.736 34.206a21.2 21.2 0 0 0 4.94-1.262c4.724-1.874 7.032-4.938 7.898-6.272-2.092-2.523-4.256-5.442-6.239-8.794-3.75-6.272-5.77-12.111-6.924-16.833a540 540 0 0 0 47.35-4.037c14.677-1.91 24.847-3.821 34.548-9.299 8.114-4.578 11.36-9.083 12.514-10.813 3.498-5.299 3.786-10.129 3.93-12.832.361-6.596-1.803-11.967-3.606-15.355z" opacity=".19"/><path fill="#6c6d6d" d="M364.737 264.563c-.722 6.704-3.282 17.301-13.488 25.663-6.275 5.155-13.018 7.461-39.488 14.598a2642 2642 0 0 1-41.905 10.885c20.448-.216 37.072-1.91 49.009-3.532 12.37-1.694 18.428-3.172 24.703-5.875 5.95-2.559 17.959-7.749 22.864-18.671 4.724-10.597-.036-20.112-1.695-23.068" opacity=".19"/><path fill="#6c6d6d" d="M269.964 316.25a90 90 0 0 0 .974 16.184c.866 5.911 2.272 11.21 3.787 15.823a27.4 27.4 0 0 0 4.002-2.883c1.659-1.442 2.885-2.812 3.787-4.001a78.5 78.5 0 0 1-6.203-9.48 68.8 68.8 0 0 1-6.347-15.643" opacity=".22"/><path fill="#191919" d="M268.305 369.307c2.777 5.443 5.517 10.886 8.294 16.364-17.743 20.834-20.051 26.745-18.716 28.187 2.632 2.883 21.529-9.84 23.476-11.138a133.5 133.5 0 0 0 15.904-12.543c-1.262-4.434-2.921-9.408-5.229-14.706-2.993-6.921-6.347-12.76-9.485-17.554-4.76 3.821-9.52 7.606-14.244 11.39"/><path fill="#fff" stroke="#191919" stroke-miterlimit="10" stroke-width="1.773" d="M372.021 262.545a49 49 0 0 1 2.776 14.634c.325 9.155-1.983 16.436-3.714 20.653a51 51 0 0 1-5.049 7.101s-5.553 6.452-14.425 11.39c-9.052 5.046-35.377 11.209-71.079 12.363a91.5 91.5 0 0 0 6.239 20.545 88 88 0 0 0 5.842 11.137c-1.298 2.271-5.049 8.002-12.514 11.643-7.176 3.496-13.74 3.099-16.372 2.775a102.3 102.3 0 0 1-11.143-16.22c-10.531-18.887-12.983-37.161-13.416-48.875 2.597-2.415 6.419-5.804 11.396-9.372 10.422-7.461 19.907-11.57 27.768-14.598 13.451-5.154 26.398-8.722 56.077-15.318 9.16-2.055 22.071-4.83 37.614-7.858Z"/><path fill="#6c6d6d" d="M339.095 270.33c-1.009 8.651-3.858 19.861-12.657 26.853-8.547 6.813-15.76 4.037-32.889 9.48-12.334 3.893-28.67 9.083-33.214 20.545-4.76 12.039 4.219 29.051 19.906 42.964a16.3 16.3 0 0 0 4.761-1.586c4.544-2.342 6.743-6.199 7.573-7.893a89 89 0 0 1-6.023-11.066 89.4 89.4 0 0 1-6.635-21.158c18.392-1.009 33.79-3.063 45.547-5.046 14.136-2.379 23.873-4.794 33.213-11.678 7.79-5.767 10.927-11.426 12.009-13.589 3.354-6.668 3.643-12.723 3.787-16.111.324-8.29-1.731-15.031-3.462-19.284a5119 5119 0 0 0-31.916 7.569" opacity=".19"/><path fill="#6c6d6d" d="M371.335 263.662c-.685 8.398-3.137 21.735-12.946 32.26-6.059 6.487-12.514 9.371-37.938 18.346a2001 2001 0 0 1-40.282 13.697c19.654-.289 35.666-2.379 47.134-4.434 11.9-2.126 17.743-3.965 23.729-7.353 5.734-3.244 17.238-9.732 21.998-23.5 4.508-13.337-.072-25.267-1.695-29.016" opacity=".19"/><path fill="#6c6d6d" d="M280.278 328.65a147 147 0 0 0 .937 20.328c.866 7.462 2.164 14.094 3.642 19.861a29 29 0 0 0 3.859-3.641 32.4 32.4 0 0 0 3.642-5.01 99 99 0 0 1-5.95-11.93 100.5 100.5 0 0 1-6.13-19.608" opacity=".22"/><path fill="#fff" stroke="#191919" stroke-miterlimit="10" stroke-width="1.773" d="M266.249 206.532c-.685-.324-2.055-.937-2.019-1.622.072-1.117 3.787-1.874 6.563-1.838 1.876 0 5.338.397 9.377 3.208-3.787 1.189-9.377 2.271-13.921.252Z"/><path fill="#fff" stroke="#191919" stroke-miterlimit="10" stroke-width="1.773" d="M352.98 159.783c-6.852-.901-13.019 9.371-13.596 10.309-2.091 3.568-2.344 5.947-3.786 12.471-3.498 15.895-5.373 23.969-10.566 28.835-4.689 4.361-10.17 5.407-11.613 5.623-6.166.973-11.756-1.334-22.647-5.983-9.196-3.929-10.314-5.371-15.326-5.948-2.561-.288-10.026-1.117-14.966 3.677-3.174 3.064-4.58 7.966-3.426 8.975 1.478 1.297 7.537-3.28 7.609-3.172.036.072-1.803.937-3.318 2.811-.757.901-2.055 2.848-1.587 3.352.83 1.01 5.915-5.118 11.504-4.036 3.823.72 4.544 4.181 8.98 4.829 2.596.397 4.868-.396 6.311-1.081 2.524 2.739 6.635 6.632 12.586 9.804 3.534 1.874 16.011 8.326 31.266 4.578 16.192-3.965 24.342-16.617 26.902-20.581 1.443-2.271 12.045-19.212 6.924-38.207-.901-3.064-4.183-15.319-11.251-16.256Z"/><path fill="#6c6d6d" d="M352.258 159.891c-2.344 1.226 2.2 9.732 1.623 21.915-.541 11.714-5.554 20.365-7.789 24.33-3.03 5.298-7.033 12.219-15.002 16.724-10.711 6.056-23.982 5.154-33.43 1.045-2.813-1.225-5.662-5.19-11.865-7.605-2.705-1.045-4.832-1.478-7.321-1.982-6.094-1.19-11.504-2.271-16.516.252-2.38 1.225-4.364 3.1-4.22 3.352s2.921-1.153 5.374-2.487c-2.957 3.929-3.426 5.046-3.21 5.262.253.217 1.154-.612 3.462-1.91 2.488-1.37 4.292-2.343 6.491-2.162 1.118.108 1.984.468 2.489.684 1.983.865 2.452 1.875 4.435 2.884 1.226.613 2.236.865 2.777.973 1.154.252 3.534.577 6.672-.541 2.74 2.884 15.326 15.644 33.754 15.391 9.485-.144 16.445-3.676 19.186-5.082 15.038-7.822 21.024-21.699 22.539-25.519 4.688-11.823 6.347-29.34-2.236-40.333-2.056-2.668-5.59-6.02-7.213-5.191" opacity=".25"/><path fill="#191919" d="M257.702 217.742a15.2 15.2 0 0 1 5.446-4.938c.469-.253.036-.937-.397-.685a16.3 16.3 0 0 0-5.734 5.226c-.324.433.397.829.685.397m.433-4.65c1.407-2.198 3.679-3.352 5.95-4.469.469-.216.073-.937-.396-.685-2.416 1.154-4.796 2.415-6.275 4.758-.252.432.433.829.721.396"/><path fill="#6c6d6d" d="M362.608 172.867c-.54 3.641-1.514 8.903-3.245 15.103-3.39 12.255-6.455 23.284-14.461 32.043-9.917 10.813-23.369 13.769-31.086 14.67 5.734 1.333 10.242 1.081 13.091.685 21.637-3.028 33.321-26.277 36.495-36.441.541-1.802 1.695-5.515 1.839-10.597.252-6.776-1.406-12.219-2.633-15.463" opacity=".29"/><path fill="#6c6d6d" d="M271.984 216.264a32.5 32.5 0 0 0 8.33 2.776c2.741.504 5.193.612 7.14.54-4.94 2.631-7.501 2.307-8.943 1.442-.902-.541-1.911-1.622-4.688-3.532-.757-.541-1.407-.974-1.839-1.226" opacity=".26"/><path fill="#161616" d="M199.065 275.52v51.94c0 2.09 3.246 2.09 3.246 0v-51.94c0-2.054-3.246-2.09-3.246 0m58.998-.685v8.327c0 2.09 3.246 2.09 3.246 0v-8.327c0-2.09-3.246-2.09-3.246 0"/><path fill="#fff" stroke="#191919" stroke-miterlimit="10" stroke-width="1.773" d="M154.275 273.394c17.491-16.472 34.981-32.98 52.507-49.453l84.891 1.514c-4.616 16.004-9.232 31.971-13.848 47.975-41.183-.036-82.366-.036-123.55-.036Z"/><path fill="#161616" d="M155.321 275.268h121.423c2.091 0 2.091-3.244 0-3.244H155.321c-2.091 0-2.091 3.244 0 3.244"/><path fill="#161616" d="M164.589 274.728v137.688c0 2.09 3.245 2.09 3.245 0V274.728c0-2.091-3.245-2.091-3.245 0m98.92 0v137.688c0 2.09 3.245 2.09 3.245 0V274.728c0-2.091-3.245-2.091-3.245 0"/><path fill="#161616" d="M166.212 341.661h98.018c2.091 0 2.091-3.244 0-3.244h-98.018c-2.092 0-2.092 3.244 0 3.244m125.029-116.206c-4.111 16.04-8.835 31.935-14.245 47.578-.469 1.334 1.623 1.874 2.092.577 5.409-15.679 10.133-31.539 14.245-47.578.324-1.334-1.731-1.911-2.092-.577M118.573 415.948h57.412c2.091 0 2.091-3.244 0-3.244h-57.412c-2.092 0-2.092 3.244 0 3.244m65.453-.721h13.235c2.092 0 2.092-3.244 0-3.244h-13.235c-2.091 0-2.091 3.244 0 3.244m57.412.469h51.75c2.091 0 2.091-3.244 0-3.244h-51.75c-2.092 0-2.092 3.244 0 3.244m63.542-1.154h9.232c2.092 0 2.092-3.244 0-3.244h-9.232c-2.091 0-2.091 3.244 0 3.244m-203.789-10.02h22.359c2.092 0 2.092-3.244 0-3.244h-22.359c-2.091 0-2.091 3.244 0 3.244"/><path fill="#fff" stroke="#191919" stroke-miterlimit="10" stroke-width="1.773" d="M258.929 266.582c-22.251-.577-44.537-1.118-66.788-1.694 13.199-12.616 26.362-25.267 39.561-37.883l45.691 2.379c-6.167 12.435-12.297 24.799-18.464 37.198Zm-27.985-39.829c-12.946 12.507-25.893 25.051-38.839 37.558-.577-20.04-1.19-40.117-1.767-60.157l39.38-24.871c.361 15.824.794 31.647 1.226 47.47Z"/><path fill="#191919" d="M191.528 206.064a1398 1398 0 0 1 2.092 53.598c0 .36.54.36.54 0a1396 1396 0 0 0-2.091-53.598c-.036-.324-.577-.324-.541 0"/><path fill="#191919" d="m191.816 206.136 36.243-23.573c.289-.18.036-.649-.288-.469l-36.243 23.573c-.289.216-.036.685.288.469"/><path fill="#191919" d="M227.915 182.527a638 638 0 0 0 1.334 43.145c.036.36.577.36.541 0-.901-14.382-1.37-28.763-1.334-43.145 0-.324-.541-.324-.541 0"/><path fill="#191919" d="M193.98 260.419a31307 31307 0 0 1 35.522-34.242c.252-.253-.145-.613-.397-.397a31307 31307 0 0 1-35.522 34.242c-.216.252.145.649.397.397m54.779-6.128c2.2-3.496 4.4-7.029 6.527-10.597.181-.288-.288-.577-.469-.288-2.127 3.568-4.327 7.1-6.527 10.597-.216.288.253.576.469.288"/><path fill="#191919" d="M255.142 243.586c2.849.108 5.698.108 8.547-.036.36 0 .36-.541 0-.541-2.849.108-5.698.108-8.547.036-.361 0-.361.541 0 .541"/><path fill="#191919" d="M263.328 243.405a1342 1342 0 0 1-4.94 10.597c-.144.325.324.577.469.289 1.659-3.533 3.317-7.065 4.94-10.597.144-.361-.324-.613-.469-.289"/><path fill="#191919" d="M248.579 254.579c3.173.469 6.527.252 9.737.108.36 0 .36-.54 0-.54-3.138.144-6.456.36-9.593-.073-.361-.072-.505.469-.144.505"/><path fill="#191919" d="M260.407 243.442a93 93 0 0 1-4.977 10.488c-.18.289.289.577.469.289a106 106 0 0 0 5.049-10.633c.108-.325-.397-.469-.541-.144m-52.254 16.327a691 691 0 0 1 24.63-28.763c.217-.252-.144-.649-.396-.396a647 647 0 0 0-24.631 28.763c-.216.288.18.649.397.396m9.592.613a457 457 0 0 1 22.467-28.799c.217-.253-.144-.649-.397-.397a461 461 0 0 0-22.539 28.908c-.216.288.253.576.469.288m10.314 1.478a320 320 0 0 1 20.195-29.808c.217-.289-.252-.541-.469-.289a321 321 0 0 0-20.195 29.809c-.18.288.289.576.469.288m8.655.901a187 187 0 0 1 21.457-31.719c.216-.252-.144-.649-.397-.396a188.6 188.6 0 0 0-21.565 31.827c-.144.324.325.612.505.288"/><path fill="#191919" d="M212.768 253.93c9.232-.973 18.464.181 27.66 1.406.361.036.325-.505 0-.541-9.16-1.225-18.392-2.415-27.66-1.405-.324.036-.324.576 0 .54m4.653-5.262c8.727-.325 17.454.324 26.037 1.982.325.072.469-.469.144-.505-8.619-1.658-17.418-2.306-26.181-1.982-.325-.036-.325.505 0 .505m4.183-5.082a82.2 82.2 0 0 1 24.991 2.234c.325.072.469-.432.144-.504a81.9 81.9 0 0 0-25.135-2.271c-.361.036-.361.577 0 .541m4.327-5.083c8.078.036 16.084.865 23.982 2.487.325.073.469-.468.144-.504a123 123 0 0 0-24.126-2.487c-.324-.036-.324.504 0 .504m4.292-4.721c7.681.144 15.327 1.045 22.792 2.739.324.072.468-.432.144-.505-7.537-1.694-15.219-2.631-22.936-2.739-.361-.036-.361.505 0 .505m24.739 5.479c-3.534 5.19-7.032 10.38-10.566 15.571-.181.288.288.576.468.288 3.534-5.19 7.033-10.381 10.567-15.571.216-.325-.253-.577-.469-.288m-59.72-7.858c4.508-1.91 9.376-.829 14.137-.901 4.003-.036 7.825-1.154 11.251-3.172.289-.18.036-.649-.288-.469-4.22 2.487-8.691 3.28-13.524 3.064-4.039-.18-8.042-.577-11.864 1.045-.289.108-.036.577.288.433"/><path fill="#191919" d="M207.396 229.168c7.717-4.361 11.287-13.552 19.329-17.409.325-.144.036-.613-.288-.469-8.078 3.893-11.613 13.048-19.33 17.41-.288.18-.036.648.289.468m9.808-25.699c-1.334-1.046-1.118-2.74-.36-4.073.36-.649.901-1.334 1.514-1.731 1.118-.72 2.164-.144 3.03.613.252.216.649-.144.396-.396-1.803-1.514-3.498-1.37-4.976.576-1.19 1.586-1.804 3.965 0 5.407.288.216.685-.18.396-.396"/><path fill="#ec615b" d="M328.277 177.12c-9.881 10.958-12.55 22.996-13.992 29.809-2.633 12.615.144 17.661.324 41.63a335 335 0 0 1-.685 23.645c2.236 1.73 16.084 12.039 34.584 8.651 13.704-2.487 21.962-11.066 24.559-13.985.613-3.424 1.478-8.47 2.488-14.598 5.337-33.052 7.97-49.813 4.652-61.815-1.983-7.281-6.888-18.815-20.808-30.746-5.842 1.225-19.87 4.974-31.122 17.409"/><path fill="#6c6d6d" d="M338.338 170.488a167 167 0 0 1 6.347 25.411c2.849 16.977 7.141 42.424-4.94 67.078a77.2 77.2 0 0 1-11.54 17.193c4.183.973 12.477 2.307 22.359-.252 11.756-3.028 19.113-9.84 22.142-12.94a2465 2465 0 0 0 5.662-33.881c2.488-15.788 3.065-20.581 2.813-27.322-.289-8.65-.686-17.733-5.879-27.537-4.976-9.372-11.972-14.995-16.264-17.878-3.498.613-8.438 1.91-13.667 4.938a45.7 45.7 0 0 0-7.033 5.19" opacity=".19"/><path fill="#6c6d6d" d="M379.306 187.681c-.65.036.721 10.02-1.407 23.789-3.931 25.483-16.553 43.145-21.421 49.417-4.075 5.226-10.458 12.435-19.798 19.535 3.353.505 7.825.721 12.946-.252 12.153-2.271 19.871-9.732 22.828-12.94.757-4.397 1.983-11.281 3.534-19.788 3.642-19.896 4.363-22.275 4.94-28.475 1.587-16.904-.865-31.286-1.622-31.286" opacity=".18"/><path fill="#fff" stroke="#191919" stroke-miterlimit="10" stroke-width="1.773" d="M264.735 214.462c-.685-.468-2.055-1.333-1.911-2.054.288-1.154 4.435-1.334 7.429-.829 2.019.324 5.698 1.37 9.556 5.01-4.327.613-10.566.793-15.074-2.127Z"/><path fill="#fff" stroke="#191919" stroke-miterlimit="10" stroke-width="1.773" d="M366.539 179.932c-7.248-2.127-15.723 7.641-16.48 8.578-2.885 3.425-3.571 5.876-6.275 12.508-6.564 16.219-9.99 24.401-16.481 28.655-5.806 3.82-11.9 3.965-13.523 3.965-6.816-.037-12.442-3.425-23.405-10.201-9.232-5.731-10.169-7.461-15.507-8.903-2.704-.721-10.638-2.883-16.805 1.334-3.931 2.667-6.347 7.641-5.265 8.903 1.37 1.622 8.727-2.199 8.763-2.055.036.072-2.127.685-4.075 2.415-.973.829-2.704 2.631-2.308 3.28.721 1.226 7.285-4.397 13.127-2.307 3.967 1.406 4.183 5.191 8.835 6.668 2.741.866 5.338.397 6.996-.072a51 51 0 0 0 11.865 12.508c3.498 2.595 15.831 11.534 32.961 10.2 18.176-1.406 29.211-13.408 32.637-17.121 1.983-2.126 16.372-18.238 14.172-39.216-.324-3.424-1.731-16.904-9.232-19.139Z"/><path fill="#6c6d6d" d="M365.746 179.932c-2.741.901.685 10.669-2.092 23.465-2.632 12.291-9.556 20.581-12.694 24.365-4.219 5.083-9.737 11.715-19.149 15.103-12.622 4.541-26.794 1.333-36.279-4.614-2.813-1.802-5.193-6.452-11.504-10.092-2.741-1.586-4.94-2.379-7.573-3.352-6.347-2.307-12.045-4.398-17.851-2.559-2.777.865-5.265 2.523-5.121 2.811.145.324 3.354-.721 6.239-1.694-3.859 3.64-4.58 4.758-4.4 5.046.217.288 1.371-.468 4.076-1.406 2.957-1.045 5.012-1.73 7.392-1.153 1.19.288 2.056.829 2.597 1.153 1.983 1.226 2.308 2.415 4.255 3.821a11.7 11.7 0 0 0 2.849 1.514c1.19.468 3.715 1.225 7.285.577 2.452 3.532 13.812 19.175 33.754 22.059 10.278 1.477 18.392-1.046 21.602-2.091 17.598-5.695 26.506-19.32 28.814-23.104 7.14-11.678 12.008-29.917 4.652-43.037-1.731-3.28-4.977-7.425-6.852-6.812" opacity=".25"/><path fill="#191919" d="M253.448 224.879c1.911-1.983 4.147-3.425 6.743-4.29.505-.18.289-.937-.216-.793-2.705.938-5.121 2.451-7.104 4.506-.361.396.216.973.577.577m1.297-4.83c1.912-2.127 4.58-2.956 7.249-3.713.505-.144.288-.937-.217-.793-2.776.829-5.589 1.73-7.573 3.929-.396.397.181.937.541.577"/><path fill="#6c6d6d" d="M374.654 195.431c-1.227 3.749-3.21 9.155-6.131 15.427-5.806 12.363-11.035 23.501-21.241 31.394-12.586 9.732-27.66 10.561-36.135 10.165 5.951 2.415 10.891 2.919 14.029 2.991 23.873.505 40.606-22.095 45.799-32.259.902-1.802 2.777-5.551 3.859-10.885 1.406-7.173.577-13.192-.18-16.833" opacity=".29"/><path fill="#6c6d6d" d="M269.171 225.744a36 36 0 0 0 8.51 4.361 36.3 36.3 0 0 0 7.61 1.767c-5.806 1.91-8.511 1.153-9.918 0-.865-.721-1.767-2.055-4.471-4.542a27 27 0 0 0-1.731-1.586" opacity=".26"/><path fill="#fff" stroke="#161616" stroke-miterlimit="10" stroke-width="1.773" d="M310.642 107.231c-.396 2.307-.793 4.613-1.118 7.028a201 201 0 0 0-2.019 27.682c1.983-.216 3.931-.432 5.914-.613-.216 1.911-.829 8.903 3.642 15.824 4.22 6.524 10.278 8.903 12.154 9.551-.217 3.533-.397 7.029-.614 10.561a84.4 84.4 0 0 1 15.94-11.173 81 81 0 0 1 14.173-5.984c-4.652-5.767-6.42-11.209-7.177-14.345-1.298-5.407-1.046-10.056-.793-14.166a65.5 65.5 0 0 1 1.406-10.164c1.695-7.713-2.74-19.932-11.576-24.33-8.727-4.361-21.745-.684-29.932 10.129Z"/><path fill="#161616" d="M312.59 141.581c1.009-.145 2.055-.253 3.065-.361.361-.036.361-.577 0-.541-1.082.109-2.128.253-3.21.397-.324 0-.18.541.145.505"/><path fill="#161616" stroke="#161616" stroke-miterlimit="10" stroke-width="1.773" d="M345.118 112.817c-4.363 1.118-5.157 4.902-10.674 12.796-5.59 8.002-9.124 13.012-15.435 15.931-4.075 1.875-6.095 1.37-7.898 3.785-3.101 4.181-1.01 11.065.83 14.598 2.127 4.073 5.373 6.524 8.042 8.542 2.56 1.91 4.904 3.172 6.563 3.929-1.767-2.703-1.875-3.532-1.659-3.785.577-.576 3.029 2.523 5.914 2.127.83-.108 2.308-.577 5.59-5.731 2.236-3.496 3.751-5.911 4.76-9.372 2.2-7.425-.901-9.443 0-19.211.145-1.478 1.154-13.048 5.265-13.805 1.479-.288 2.994.937 3.715 1.874 1.514 1.983 1.334 5.155-.541 7.894.613-.432 6.491-4.397 6.419-10.849 0-1.009-.036-4.722-2.849-7.137-3.209-2.739-7.681-1.658-8.042-1.586Z"/><path fill="#161616" d="M316.052 129.218c.836 0 1.514-1.211 1.514-2.704s-.678-2.703-1.514-2.703c-.837 0-1.515 1.21-1.515 2.703s.678 2.704 1.515 2.704m-11.54 1.261c.836 0 1.514-1.21 1.514-2.703s-.678-2.704-1.514-2.704c-.837 0-1.515 1.211-1.515 2.704s.678 2.703 1.515 2.703m-2.272-7.136c.973-1.118 2.488-1.226 3.57-.145.505.505 1.262-.288.757-.757-1.478-1.441-3.75-1.405-5.121.145-.396.54.361 1.297.794.757m11.829-1.875c1.262-1.045 2.921-.901 4.002.288.469.505 1.227-.252.758-.757-1.515-1.622-3.859-1.694-5.554-.288-.505.433.253 1.19.794.757"/><path fill="#5222d0" d="M309.416 111.52c.397-2.595 1.407-6.849 4.184-11.246.973-1.55 3.065-4.83 6.383-7.064 6.347-4.218 16.12-3.893 23.224 1.297 6.96 5.082 10.422 14.165 8.907 23.176a8723 8723 0 0 1-42.698-6.163"/><path fill="#161616" d="M286.12 111.844c21.89 2.812 43.816 5.623 65.706 8.398 2.055.253 2.055-2.991 0-3.244-21.89-2.811-43.816-5.622-65.706-8.398-2.056-.288-2.056 2.956 0 3.244"/><path fill="#321693" d="M327.952 90.578c5.626 1.226 9.881 5.767 10.602 11.21.649 4.758-1.442 9.588-5.409 12.543 6.239.829 12.514 1.694 18.752 2.523a22 22 0 0 0 .217-7.136c-.938-6.921-4.941-11.354-6.239-12.688-1.406-1.442-6.383-6.271-13.776-6.704a19.4 19.4 0 0 0-4.147.252"/></svg>